<svg width="243" height="240" viewBox="0 0 243 240" fill="none" xmlns="http://www.w3.org/2000/svg">
<path d="M231.709 170.817C243.963 144.604 246.332 114.846 238.38 87.0241C230.429 59.2023 212.692 35.1907 188.437 19.4118C164.182 3.63287 135.043 -2.85053 106.385 1.15574C77.7285 5.16201 51.4841 19.3881 32.4863 41.2138C13.4885 63.0395 3.01681 90.9947 3.00002 119.93C2.98323 148.866 13.4225 176.833 32.3949 198.681C51.3674 220.529 77.5953 234.785 106.248 238.825C134.9 242.864 164.047 236.415 188.32 220.664L123 120L231.709 170.817Z" fill="white"/>
<path d="M181.988 222.75C202.745 210.227 219.223 191.712 229.251 169.641L120 120L181.988 222.75Z" fill="url(#paint0_linear_12_6)"/>
<g filter="url(#filter0_d_12_6)">
<ellipse cx="119.5" cy="120" rx="62.5" ry="63" transform="rotate(-180 119.5 120)" fill="#161616"/>
</g>
<path d="M99.41 131V111.8L101.51 113.9H95.21V110H104.27V131H99.41ZM116.918 131.36C115.198 131.36 113.658 130.94 112.298 130.1C110.938 129.24 109.868 128 109.088 126.38C108.308 124.76 107.918 122.8 107.918 120.5C107.918 118.2 108.308 116.24 109.088 114.62C109.868 113 110.938 111.77 112.298 110.93C113.658 110.07 115.198 109.64 116.918 109.64C118.658 109.64 120.198 110.07 121.538 110.93C122.898 111.77 123.968 113 124.748 114.62C125.528 116.24 125.918 118.2 125.918 120.5C125.918 122.8 125.528 124.76 124.748 126.38C123.968 128 122.898 129.24 121.538 130.1C120.198 130.94 118.658 131.36 116.918 131.36ZM116.918 127.25C117.738 127.25 118.448 127.02 119.048 126.56C119.668 126.1 120.148 125.37 120.488 124.37C120.848 123.37 121.028 122.08 121.028 120.5C121.028 118.92 120.848 117.63 120.488 116.63C120.148 115.63 119.668 114.9 119.048 114.44C118.448 113.98 117.738 113.75 116.918 113.75C116.118 113.75 115.408 113.98 114.788 114.44C114.188 114.9 113.708 115.63 113.348 116.63C113.008 117.63 112.838 118.92 112.838 120.5C112.838 122.08 113.008 123.37 113.348 124.37C113.708 125.37 114.188 126.1 114.788 126.56C115.408 127.02 116.118 127.25 116.918 127.25ZM131.309 131L145.649 110H149.219L134.879 131H131.309ZM133.139 121.34C132.119 121.34 131.219 121.11 130.439 120.65C129.659 120.17 129.039 119.5 128.579 118.64C128.139 117.76 127.919 116.73 127.919 115.55C127.919 114.37 128.139 113.35 128.579 112.49C129.039 111.63 129.659 110.96 130.439 110.48C131.219 110 132.119 109.76 133.139 109.76C134.159 109.76 135.059 110 135.839 110.48C136.619 110.96 137.229 111.63 137.669 112.49C138.109 113.35 138.329 114.37 138.329 115.55C138.329 116.73 138.109 117.76 137.669 118.64C137.229 119.5 136.619 120.17 135.839 120.65C135.059 121.11 134.159 121.34 133.139 121.34ZM133.139 118.88C133.799 118.88 134.329 118.61 134.729 118.07C135.129 117.51 135.329 116.67 135.329 115.55C135.329 114.43 135.129 113.6 134.729 113.06C134.329 112.5 133.799 112.22 133.139 112.22C132.499 112.22 131.969 112.5 131.549 113.06C131.149 113.6 130.949 114.43 130.949 115.55C130.949 116.65 131.149 117.48 131.549 118.04C131.969 118.6 132.499 118.88 133.139 118.88ZM147.389 131.24C146.389 131.24 145.489 131.01 144.689 130.55C143.909 130.07 143.299 129.4 142.859 128.54C142.419 127.66 142.199 126.63 142.199 125.45C142.199 124.27 142.419 123.25 142.859 122.39C143.299 121.53 143.909 120.86 144.689 120.38C145.489 119.9 146.389 119.66 147.389 119.66C148.429 119.66 149.339 119.9 150.119 120.38C150.899 120.86 151.509 121.53 151.949 122.39C152.389 123.25 152.609 124.27 152.609 125.45C152.609 126.63 152.389 127.66 151.949 128.54C151.509 129.4 150.899 130.07 150.119 130.55C149.339 131.01 148.429 131.24 147.389 131.24ZM147.389 128.78C148.049 128.78 148.579 128.51 148.979 127.97C149.379 127.41 149.579 126.57 149.579 125.45C149.579 124.35 149.379 123.52 148.979 122.96C148.579 122.4 148.049 122.12 147.389 122.12C146.749 122.12 146.219 122.4 145.799 122.96C145.399 123.5 145.199 124.33 145.199 125.45C145.199 126.57 145.399 127.41 145.799 127.97C146.219 128.51 146.749 128.78 147.389 128.78Z" fill="white"/>
<defs>
<filter id="filter0_d_12_6" x="26" y="30" width="187" height="188" filterUnits="userSpaceOnUse" color-interpolation-filters="sRGB">
<feFlood flood-opacity="0" result="BackgroundImageFix"/>
<feColorMatrix in="SourceAlpha" type="matrix" values="0 0 0 0 0 0 0 0 0 0 0 0 0 0 0 0 0 0 127 0" result="hardAlpha"/>
<feMorphology radius="8" operator="dilate" in="SourceAlpha" result="effect1_dropShadow_12_6"/>
<feOffset dy="4"/>
<feGaussianBlur stdDeviation="11.5"/>
<feColorMatrix type="matrix" values="0 0 0 0 0 0 0 0 0 0 0 0 0 0 0 0 0 0 0.25 0"/>
<feBlend mode="normal" in2="BackgroundImageFix" result="effect1_dropShadow_12_6"/>
<feBlend mode="normal" in="SourceGraphic" in2="effect1_dropShadow_12_6" result="shape"/>
</filter>
<linearGradient id="paint0_linear_12_6" x1="-38.4" y1="45.6" x2="276" y2="208.8" gradientUnits="userSpaceOnUse">
<stop stop-color="#3F37C9"/>
<stop offset="1" stop-color="#4895EF"/>
<stop offset="1" stop-color="#4895EF"/>
</linearGradient>
</defs>
</svg>
