<svg width="240" height="240" viewBox="0 0 240 240" fill="none" xmlns="http://www.w3.org/2000/svg">
<path d="M120 0C91.7938 -3.36356e-07 64.489 9.93583 42.8791 28.0632C21.2692 46.1906 6.73546 71.3509 1.82926 99.1272C-3.07694 126.903 1.95803 155.52 16.0503 179.954C30.1425 204.387 52.3912 223.076 78.8907 232.739C105.39 242.402 134.446 242.421 160.959 232.794C187.471 223.166 209.745 204.507 223.87 180.092C237.994 155.678 243.068 127.068 238.199 99.285C233.329 71.5022 218.829 46.3225 197.244 28.1663L120 120V0Z" fill="white"/>
<path d="M204.853 35.1472C182.348 12.6428 151.826 3.79521e-07 120 0V120L204.853 35.1472Z" fill="url(#paint0_linear_12_8)"/>
<g filter="url(#filter0_d_12_8)">
<ellipse cx="120.5" cy="120" rx="62.5" ry="63" transform="rotate(-180 120.5 120)" fill="#161616"/>
</g>
<path d="M100.41 131V111.8L102.51 113.9H96.21V110H105.27V131H100.41ZM117.918 131.36C116.198 131.36 114.658 130.94 113.298 130.1C111.938 129.24 110.868 128 110.088 126.38C109.308 124.76 108.918 122.8 108.918 120.5C108.918 118.2 109.308 116.24 110.088 114.62C110.868 113 111.938 111.77 113.298 110.93C114.658 110.07 116.198 109.64 117.918 109.64C119.658 109.64 121.198 110.07 122.538 110.93C123.898 111.77 124.968 113 125.748 114.62C126.528 116.24 126.918 118.2 126.918 120.5C126.918 122.8 126.528 124.76 125.748 126.38C124.968 128 123.898 129.24 122.538 130.1C121.198 130.94 119.658 131.36 117.918 131.36ZM117.918 127.25C118.738 127.25 119.448 127.02 120.048 126.56C120.668 126.1 121.148 125.37 121.488 124.37C121.848 123.37 122.028 122.08 122.028 120.5C122.028 118.92 121.848 117.63 121.488 116.63C121.148 115.63 120.668 114.9 120.048 114.44C119.448 113.98 118.738 113.75 117.918 113.75C117.118 113.75 116.408 113.98 115.788 114.44C115.188 114.9 114.708 115.63 114.348 116.63C114.008 117.63 113.838 118.92 113.838 120.5C113.838 122.08 114.008 123.37 114.348 124.37C114.708 125.37 115.188 126.1 115.788 126.56C116.408 127.02 117.118 127.25 117.918 127.25ZM132.309 131L146.649 110H150.219L135.879 131H132.309ZM134.139 121.34C133.119 121.34 132.219 121.11 131.439 120.65C130.659 120.17 130.039 119.5 129.579 118.64C129.139 117.76 128.919 116.73 128.919 115.55C128.919 114.37 129.139 113.35 129.579 112.49C130.039 111.63 130.659 110.96 131.439 110.48C132.219 110 133.119 109.76 134.139 109.76C135.159 109.76 136.059 110 136.839 110.48C137.619 110.96 138.229 111.63 138.669 112.49C139.109 113.35 139.329 114.37 139.329 115.55C139.329 116.73 139.109 117.76 138.669 118.64C138.229 119.5 137.619 120.17 136.839 120.65C136.059 121.11 135.159 121.34 134.139 121.34ZM134.139 118.88C134.799 118.88 135.329 118.61 135.729 118.07C136.129 117.51 136.329 116.67 136.329 115.55C136.329 114.43 136.129 113.6 135.729 113.06C135.329 112.5 134.799 112.22 134.139 112.22C133.499 112.22 132.969 112.5 132.549 113.06C132.149 113.6 131.949 114.43 131.949 115.55C131.949 116.65 132.149 117.48 132.549 118.04C132.969 118.6 133.499 118.88 134.139 118.88ZM148.389 131.24C147.389 131.24 146.489 131.01 145.689 130.55C144.909 130.07 144.299 129.4 143.859 128.54C143.419 127.66 143.199 126.63 143.199 125.45C143.199 124.27 143.419 123.25 143.859 122.39C144.299 121.53 144.909 120.86 145.689 120.38C146.489 119.9 147.389 119.66 148.389 119.66C149.429 119.66 150.339 119.9 151.119 120.38C151.899 120.86 152.509 121.53 152.949 122.39C153.389 123.25 153.609 124.27 153.609 125.45C153.609 126.63 153.389 127.66 152.949 128.54C152.509 129.4 151.899 130.07 151.119 130.55C150.339 131.01 149.429 131.24 148.389 131.24ZM148.389 128.78C149.049 128.78 149.579 128.51 149.979 127.97C150.379 127.41 150.579 126.57 150.579 125.45C150.579 124.35 150.379 123.52 149.979 122.96C149.579 122.4 149.049 122.12 148.389 122.12C147.749 122.12 147.219 122.4 146.799 122.96C146.399 123.5 146.199 124.33 146.199 125.45C146.199 126.57 146.399 127.41 146.799 127.97C147.219 128.51 147.749 128.78 148.389 128.78Z" fill="white"/>
<defs>
<filter id="filter0_d_12_8" x="27" y="30" width="187" height="188" filterUnits="userSpaceOnUse" color-interpolation-filters="sRGB">
<feFlood flood-opacity="0" result="BackgroundImageFix"/>
<feColorMatrix in="SourceAlpha" type="matrix" values="0 0 0 0 0 0 0 0 0 0 0 0 0 0 0 0 0 0 127 0" result="hardAlpha"/>
<feMorphology radius="8" operator="dilate" in="SourceAlpha" result="effect1_dropShadow_12_8"/>
<feOffset dy="4"/>
<feGaussianBlur stdDeviation="11.5"/>
<feColorMatrix type="matrix" values="0 0 0 0 0 0 0 0 0 0 0 0 0 0 0 0 0 0 0.25 0"/>
<feBlend mode="normal" in2="BackgroundImageFix" result="effect1_dropShadow_12_8"/>
<feBlend mode="normal" in="SourceGraphic" in2="effect1_dropShadow_12_8" result="shape"/>
</filter>
<linearGradient id="paint0_linear_12_8" x1="-38.4" y1="45.6" x2="276" y2="208.8" gradientUnits="userSpaceOnUse">
<stop stop-color="#3F37C9"/>
<stop offset="1" stop-color="#4895EF"/>
<stop offset="1" stop-color="#4895EF"/>
</linearGradient>
</defs>
</svg>
