<svg width="240" height="240" viewBox="0 0 240 240" fill="none" xmlns="http://www.w3.org/2000/svg">
<circle cx="120" cy="120" r="120" fill="url(#paint0_linear_1_206)"/>
<path d="M217.658 189.734C230.444 171.828 238.061 150.752 239.676 128.809C241.291 106.867 236.843 84.9021 226.817 65.3172C216.791 45.7323 201.573 29.2809 182.827 17.7614C164.082 6.24197 142.53 0.097994 120.528 0.00116215L120 120L217.658 189.734Z" fill="white"/>
<g filter="url(#filter0_d_1_206)">
<ellipse cx="120.5" cy="120" rx="62.5" ry="63" transform="rotate(-180 120.5 120)" fill="#161616"/>
</g>
<path d="M107.4 122.63V126.59H103.98V131H99.24V126.59H87.93V123.32L97.83 110H102.93L93.75 122.63H99.39V118.7H103.98V122.63H107.4ZM118.459 118.55C122.239 119.15 124.159 121.49 124.159 124.58C124.159 128.12 121.429 131.36 115.459 131.36C112.519 131.36 109.489 130.55 107.449 129.11L109.339 125.39C110.929 126.59 113.149 127.28 115.339 127.28C117.769 127.28 119.269 126.29 119.269 124.58C119.269 122.99 118.099 122 115.339 122H113.119V118.79L117.439 113.9H108.499V110H123.199V113.15L118.459 118.55ZM130.969 121.34C127.909 121.34 125.749 119.09 125.749 115.55C125.749 112.01 127.909 109.76 130.969 109.76C134.029 109.76 136.159 111.98 136.159 115.55C136.159 119.12 134.029 121.34 130.969 121.34ZM129.139 131L143.479 110H147.049L132.709 131H129.139ZM130.969 118.88C132.289 118.88 133.159 117.8 133.159 115.55C133.159 113.3 132.289 112.22 130.969 112.22C129.679 112.22 128.779 113.33 128.779 115.55C128.779 117.77 129.679 118.88 130.969 118.88ZM145.219 131.24C142.189 131.24 140.029 128.99 140.029 125.45C140.029 121.91 142.189 119.66 145.219 119.66C148.279 119.66 150.439 121.91 150.439 125.45C150.439 128.99 148.279 131.24 145.219 131.24ZM145.219 128.78C146.539 128.78 147.409 127.67 147.409 125.45C147.409 123.23 146.539 122.12 145.219 122.12C143.929 122.12 143.029 123.2 143.029 125.45C143.029 127.7 143.929 128.78 145.219 128.78Z" fill="white"/>
<defs>
<filter id="filter0_d_1_206" x="27" y="30" width="187" height="188" filterUnits="userSpaceOnUse" color-interpolation-filters="sRGB">
<feFlood flood-opacity="0" result="BackgroundImageFix"/>
<feColorMatrix in="SourceAlpha" type="matrix" values="0 0 0 0 0 0 0 0 0 0 0 0 0 0 0 0 0 0 127 0" result="hardAlpha"/>
<feMorphology radius="8" operator="dilate" in="SourceAlpha" result="effect1_dropShadow_1_206"/>
<feOffset dy="4"/>
<feGaussianBlur stdDeviation="11.5"/>
<feColorMatrix type="matrix" values="0 0 0 0 0 0 0 0 0 0 0 0 0 0 0 0 0 0 0.25 0"/>
<feBlend mode="normal" in2="BackgroundImageFix" result="effect1_dropShadow_1_206"/>
<feBlend mode="normal" in="SourceGraphic" in2="effect1_dropShadow_1_206" result="shape"/>
</filter>
<linearGradient id="paint0_linear_1_206" x1="-38.4" y1="45.6" x2="276" y2="208.8" gradientUnits="userSpaceOnUse">
<stop stop-color="#3F37C9"/>
<stop offset="1" stop-color="#4895EF"/>
<stop offset="1" stop-color="#4895EF"/>
</linearGradient>
</defs>
</svg>
