<svg width="1620" height="719" viewBox="0 0 1620 719" fill="none" xmlns="http://www.w3.org/2000/svg">
<g clip-path="url(#clip0_570_11257)">
<rect width="1620" height="719" rx="20" fill="white"/>
<rect width="1620" height="353" rx="20" fill="#05151B"/>
<g opacity="0.6" filter="url(#filter0_f_570_11257)">
<path fill-rule="evenodd" clip-rule="evenodd" d="M719.328 240.172C700.959 297.877 658.916 342.022 620.837 389.081C588.028 429.626 553.063 465.77 511.404 497.125C465.001 532.051 421.239 580.657 363.232 582.969C305.038 585.288 256.167 542.124 208.091 509.212C162.889 478.267 130.704 435.629 91.7391 397.109C38.4099 344.389 -53.6254 314.477 -64.0575 240.172C-74.1423 168.339 -0.935253 112.586 43.7808 55.5119C83.4114 4.92864 127.647 -39.874 182.075 -73.9838C237.964 -109.009 297.998 -154.284 363.232 -144.688C428.36 -135.107 456.053 -51.9509 516.059 -24.8536C586.015 6.7369 690.277 -36.8361 737.017 24.1044C781.738 82.4124 741.625 170.127 719.328 240.172Z" fill="url(#paint0_linear_570_11257)"/>
</g>
<g opacity="0.4" filter="url(#filter1_f_570_11257)">
<path fill-rule="evenodd" clip-rule="evenodd" d="M1763.74 177.983C1744.73 237.604 1701.21 283.213 1661.8 331.834C1627.85 373.725 1591.66 411.069 1548.55 443.465C1500.52 479.55 1455.23 529.769 1395.2 532.157C1334.97 534.553 1284.39 489.957 1234.63 455.952C1187.85 423.981 1154.54 379.927 1114.22 340.129C1059.02 285.659 963.772 254.754 952.975 177.983C942.538 103.766 1018.3 46.1624 1064.58 -12.8061C1105.6 -65.0682 1151.38 -111.358 1207.71 -146.6C1265.55 -182.788 1327.68 -229.565 1395.2 -219.651C1462.6 -209.752 1491.26 -123.836 1553.36 -95.8389C1625.77 -63.2 1733.67 -108.219 1782.04 -45.256C1828.33 14.9873 1786.81 105.613 1763.74 177.983Z" fill="#414BD1"/>
</g>
<g opacity="0.5">
<path d="M1154.92 -111.282C1139.52 -90.0507 1130.23 -65.8574 1133.16 -38.9485C1139.03 13.635 1190.37 52.6407 1195.01 105.224C1201.61 180.026 1113.12 233.35 1108.23 308.152C1104.56 360.983 1146.12 408.382 1194.52 428.625C1249.28 451.584 1315.78 431.588 1365.16 461.459C1422.86 496.515 1420.65 594.029 1485.68 616C1522.84 628.344 1563.67 601.188 1581.51 566.132C1599.36 530.83 1600.34 489.849 1603.52 450.35C1607.67 399.247 1610.12 356.292 1660.48 328.889C1694.95 309.88 1735.28 304.943 1772.44 292.105C1838.45 268.9 1895.17 219.772 1927.44 157.067C1953.11 107.693 1958.48 36.3471 1913.01 4.50078C1885.88 -14.5083 1849.21 -12.7802 1817.18 -4.13969C1756.06 11.9069 1688.84 41.5314 1627.23 5.982C1574.67 -24.3831 1572.71 -94.4944 1544.6 -144.115C1520.4 -187.071 1482.75 -224.349 1435.32 -236.692C1368.58 -254.22 1299.89 -219.164 1240.73 -183.368C1209.44 -164.606 1176.19 -140.412 1154.92 -111.282Z" stroke="#80BFFF" stroke-linecap="round" stroke-linejoin="round"/>
<path d="M1170.81 -103.875C1156.14 -83.3846 1147.58 -60.6725 1150.03 -35.2448C1153.21 0.304605 1178.14 29.4354 1193.79 61.5286C1199.9 74.3659 1204.79 87.6969 1206.01 101.769C1212.61 172.62 1130.96 223.476 1131.2 293.834C1131.45 320.249 1142.21 343.455 1156.63 366.167C1170.81 388.386 1189.88 406.654 1213.83 418.257C1262 441.71 1322.38 427.638 1369.56 449.116C1372.17 450.268 1374.78 451.585 1377.38 453.066C1433.86 484.665 1435.57 570.576 1498.4 591.56C1534.33 603.657 1572.96 580.451 1590.8 549.839C1608.65 518.98 1612.07 482.69 1616.72 446.153C1622.34 403.198 1625.03 364.192 1658.77 336.79C1662.35 333.992 1666.18 331.276 1670.26 328.643C1701.06 309.387 1736.51 302.721 1769.75 288.897C1829.4 263.963 1882.7 215.082 1915.21 155.586C1928.66 130.899 1938.93 102.262 1939.41 73.872C1939.9 43.0132 1927.92 13.1418 1902.26 -2.65795C1875.12 -19.692 1840.65 -17.4701 1809.85 -8.58274C1759.49 5.98265 1705.46 30.4228 1653.14 15.8574C1644.34 13.3887 1635.79 9.93255 1627.47 5.242C1576.62 -23.395 1572.22 -90.0502 1544.11 -137.203C1520.15 -177.196 1483.73 -212.004 1438.5 -223.36C1374.45 -239.654 1308.93 -207.314 1252.22 -172.999C1222.39 -154.73 1191.1 -131.771 1170.81 -103.875Z" stroke="#80BFFF" stroke-linecap="round" stroke-linejoin="round"/>
<path d="M1186.7 -96.2222C1173.01 -76.9663 1164.7 -55.4886 1166.65 -31.5422C1169.34 2.03228 1191.59 29.9287 1205.77 60.2938C1211.39 72.3905 1215.79 84.9809 1217.26 98.5588C1223.86 165.214 1149.54 214.094 1154.43 279.268C1156.39 306.177 1168.36 327.161 1181.57 351.849C1193.79 375.054 1209.44 394.557 1232.9 407.888C1277.4 432.822 1336.07 421.466 1382.03 440.722C1384.64 441.874 1387.16 443.108 1389.61 444.425C1444.86 472.568 1450.48 547.123 1511.35 567.367C1545.82 578.97 1582.25 559.714 1600.34 533.545C1618.18 507.13 1623.81 475.531 1629.92 441.956C1637.5 402.21 1640.68 364.192 1670.01 336.542C1673.11 333.745 1676.53 331.029 1680.28 328.396C1706.93 308.646 1737.73 300.746 1767.31 285.687C1820.36 259.025 1870.48 210.391 1902.99 153.858C1917.9 128.183 1930.37 99.0525 1931.84 69.1812C1933.06 37.0879 1919.12 5.2415 1891.5 -10.0645C1864.61 -24.8767 1832.09 -22.4081 1802.51 -13.027C1754.6 2.27905 1703.26 27.213 1652.41 14.1289C1644.1 11.9893 1635.79 8.69771 1627.47 4.25404C1578.58 -22.1611 1571.74 -85.36 1543.38 -130.044C1519.66 -167.568 1484.71 -199.661 1441.68 -210.03C1380.32 -225.089 1317.73 -195.218 1263.95 -162.631C1235.35 -145.103 1205.77 -123.131 1186.7 -96.2222Z" stroke="#80BFFF" stroke-linecap="round" stroke-linejoin="round"/>
<path d="M1202.59 -88.569C1189.63 -70.5474 1182.05 -50.3041 1183.28 -27.8388C1185.23 3.51379 1205.03 30.1759 1217.75 59.0598C1222.88 70.6627 1226.79 82.5126 1228.26 95.103C1234.86 157.561 1168.85 204.961 1177.41 264.703C1181.57 292.353 1194.77 310.621 1206.26 337.53C1217.01 361.724 1228.99 382.461 1252.22 397.273C1293.04 423.688 1349.76 415.295 1394.5 432.576C1396.94 433.563 1399.39 434.633 1401.83 435.785C1455.86 460.472 1465.39 523.424 1524.06 543.174C1557.07 554.036 1591.54 538.977 1609.63 517.252C1627.72 495.281 1635.3 468.619 1643.12 437.513C1652.65 401.223 1656.08 363.945 1681.26 336.296C1684.03 333.498 1686.96 330.782 1690.06 328.149C1713.04 308.153 1738.95 298.771 1764.87 282.725C1811.31 254.088 1858.5 205.948 1890.77 152.13C1906.9 125.468 1922.06 96.0903 1924.01 64.7377C1926.21 31.1632 1910.32 -2.90495 1880.99 -17.4703C1854.34 -30.3076 1823.29 -27.3452 1795.42 -17.4703C1749.46 -1.4237 1701.06 24.251 1651.92 12.4012C1643.77 10.5908 1635.7 7.62826 1627.72 3.51374C1580.29 -21.1733 1571.25 -80.9161 1542.89 -122.884C1519.42 -157.693 1485.68 -187.318 1444.61 -196.945C1386.18 -210.77 1326.53 -183.121 1275.69 -152.015C1248.55 -135.475 1220.68 -114.244 1202.59 -88.569Z" stroke="#80BFFF" stroke-linecap="round" stroke-linejoin="round"/>
<path d="M1218.48 -81.1656C1206.5 -64.1315 1199.17 -45.1225 1200.15 -24.1385C1201.37 5.23918 1218.24 30.6669 1229.73 57.8227C1234.37 68.685 1238.04 79.7942 1239.26 91.6441C1246.11 150.152 1188.66 195.824 1200.63 250.382C1206.75 278.525 1221.17 294.325 1231.19 323.209C1240.24 348.39 1248.55 370.114 1271.29 386.902C1308.93 414.551 1363.21 409.367 1406.97 424.426C1409.41 425.249 1411.85 426.154 1414.3 427.142C1466.62 448.373 1480.31 499.969 1537.02 518.731C1568.56 529.346 1600.83 518.237 1618.92 500.956C1637.25 483.428 1646.79 461.457 1656.32 433.313C1667.57 400.233 1671.48 363.449 1692.5 336.293C1694.78 333.331 1697.23 330.45 1699.84 327.653C1719.15 307.409 1740.17 296.547 1762.42 279.513C1802.27 248.901 1846.52 201.501 1878.79 150.399C1896.14 122.75 1913.5 92.8783 1916.44 60.0445C1919.37 25.2357 1901.52 -11.3012 1870.23 -24.6322C1844.07 -35.7414 1814.74 -32.2853 1788.09 -21.9167C1744.33 -5.12944 1698.86 21.0389 1651.19 10.9172C1643.2 9.10677 1635.46 6.309 1627.96 2.52364C1582.25 -20.1885 1570.76 -76.4751 1542.16 -115.728C1518.93 -148.068 1486.66 -174.977 1447.79 -183.617C1392.3 -196.207 1335.34 -171.027 1287.18 -141.649C1261.51 -125.849 1235.35 -105.606 1218.48 -81.1656Z" stroke="#80BFFF" stroke-linecap="round" stroke-linejoin="round"/>
<path d="M1234.13 -73.5112C1223.37 -57.4646 1216.52 -39.9367 1216.77 -20.4339C1217.26 6.96873 1231.68 30.9152 1241.7 56.5898C1245.86 66.7115 1249.04 77.3269 1250.5 88.1892C1257.11 142.748 1209.19 186.444 1223.61 235.818C1232.17 264.702 1247.57 277.786 1256.13 308.892C1263.22 335.06 1268.11 357.772 1290.6 376.535C1324.58 404.925 1376.89 403.197 1419.43 416.034C1421.71 416.857 1424.08 417.68 1426.52 418.503C1477.62 436.277 1494.97 476.517 1549.73 494.539C1580.05 504.414 1610.12 497.501 1628.45 484.664C1646.79 471.58 1658.52 454.299 1669.52 429.118C1682.72 399.247 1686.88 363.203 1703.99 336.048C1705.7 333.085 1707.66 330.37 1709.61 327.407C1725.02 306.917 1741.4 294.327 1759.98 276.552C1793.22 243.965 1834.54 197.059 1866.56 148.673C1885.39 120.035 1905.19 89.9173 1908.86 55.3553C1912.52 19.3122 1892.97 -19.4465 1859.47 -32.0369C1833.8 -41.418 1806.18 -37.2212 1780.75 -26.3589C1739.44 -8.58414 1696.66 18.0778 1650.7 9.19048C1642.87 7.70925 1635.3 5.24055 1627.96 1.78435C1584.2 -19.1997 1570.27 -71.7831 1541.67 -108.814C1518.69 -138.191 1487.64 -162.632 1450.72 -170.531C1398.16 -181.641 1344.14 -158.928 1298.91 -131.279C1274.46 -116.22 1250.26 -96.9639 1234.13 -73.5112Z" stroke="#80BFFF" stroke-linecap="round" stroke-linejoin="round"/>
<path d="M1250.02 -65.8594C1239.99 -51.0471 1233.64 -34.7537 1233.64 -16.7321C1233.15 8.69557 1245.13 31.4077 1253.68 55.3542C1257.11 64.9822 1260.04 74.6102 1261.51 84.7319C1268.11 135.34 1230.22 177.308 1246.84 221.498C1257.84 250.876 1273.97 261.491 1280.82 294.325C1286.69 321.481 1287.66 345.181 1309.67 366.165C1340.47 395.049 1390.59 397.27 1431.9 407.886C1434.18 408.544 1436.46 409.203 1438.75 409.861C1488.62 424.426 1509.89 452.816 1562.69 470.097C1591.54 479.725 1619.41 476.763 1637.74 468.369C1656.32 459.976 1670.26 447.138 1682.72 424.92C1697.88 398.258 1702.28 362.955 1715.24 335.8C1716.46 332.837 1717.93 330.122 1719.39 327.159C1731.13 306.175 1742.86 292.35 1757.29 273.341C1784.18 238.779 1822.8 192.861 1854.34 146.943C1874.63 117.319 1896.63 86.7068 1901.03 50.6636C1905.68 13.3861 1884.41 -28.0882 1848.72 -39.1974C1823.78 -47.0973 1797.62 -41.9129 1773.67 -30.8037C1734.31 -12.2884 1694.46 14.8674 1649.97 7.46127C1642.47 6.3092 1635.22 4.08734 1628.21 0.795725C1585.92 -17.9665 1570.02 -67.3406 1541.18 -101.656C1518.44 -128.565 1488.62 -150.289 1453.9 -157.202C1404.03 -167.076 1353.18 -147.08 1310.4 -120.665C1287.42 -106.593 1264.93 -88.0777 1250.02 -65.8594Z" stroke="#80BFFF" stroke-linecap="round" stroke-linejoin="round"/>
<path d="M1265.91 -58.4525C1256.86 -44.6277 1250.99 -29.5687 1250.26 -13.0283C1249.28 10.1776 1258.57 31.6553 1265.66 54.1206C1268.6 63.008 1271.29 72.1423 1272.51 81.5234C1279.35 127.935 1251.48 167.928 1269.82 206.934C1284 237.052 1300.62 244.952 1305.75 280.008C1309.91 308.151 1307.47 332.591 1328.73 355.55C1356.6 385.175 1404.03 391.099 1444.37 399.74C1446.49 400.234 1448.69 400.727 1450.97 401.221C1499.62 412.33 1524.8 429.364 1575.4 445.905C1603.03 454.792 1628.7 456.026 1647.28 452.077C1665.61 448.127 1681.75 440.227 1695.92 420.477C1713.04 397.271 1717.68 362.462 1726.48 335.553C1727.22 332.591 1728.19 329.875 1729.42 326.913C1737 305.682 1744.09 290.129 1754.84 270.38C1775.13 233.596 1811.07 188.665 1842.12 145.216C1863.87 114.604 1888.32 83.4982 1893.45 45.9738C1898.83 7.46191 1875.85 -36.728 1837.96 -46.6028C1813.51 -53.0214 1789.07 -46.8497 1766.33 -35.2468C1729.17 -15.9908 1692.26 11.9057 1649.48 5.7339C1642.14 4.74642 1635.05 2.85377 1628.21 0.0559014C1587.87 -16.9782 1569.54 -62.8963 1540.44 -94.4958C1518.2 -118.689 1489.59 -137.945 1456.84 -143.87C1409.9 -152.757 1361.98 -134.982 1322.13 -110.295C1300.62 -96.9644 1279.84 -79.4365 1265.91 -58.4525Z" stroke="#80BFFF" stroke-linecap="round" stroke-linejoin="round"/>
<path d="M1281.8 -50.7976C1273.49 -38.2071 1268.11 -24.3824 1266.89 -9.32328C1265.17 11.9076 1272.02 31.9042 1277.89 52.8882C1280.09 61.035 1282.29 69.4286 1283.75 78.0691C1290.35 120.284 1273.49 158.302 1293.04 192.617C1310.4 222.982 1327.27 228.66 1330.69 265.691C1333.38 294.822 1327.27 320.003 1348.05 345.183C1372.98 375.302 1417.72 384.93 1456.84 391.348C1458.96 391.842 1461.07 392.253 1463.19 392.583C1510.62 400.236 1539.71 405.914 1588.36 421.466C1614.52 430.107 1638.23 435.291 1656.57 435.785C1675.15 436.279 1693.48 433.069 1709.37 416.282C1728.2 396.286 1732.84 361.97 1737.73 335.555C1738.22 332.593 1738.71 329.63 1739.2 326.668C1743.11 304.943 1745.06 287.909 1752.4 267.172C1766.09 228.413 1799.34 184.47 1829.89 143.49C1853.36 111.89 1879.77 80.5376 1885.88 41.2851C1891.74 1.53893 1867.3 -45.3665 1827.2 -53.7601C1803.49 -58.9444 1780.51 -51.7851 1759.24 -39.6885C1724.28 -19.6919 1690.06 8.94509 1648.74 4.25455C1641.74 3.43165 1634.97 1.70362 1628.45 -0.929673C1589.83 -15.9888 1569.29 -58.4506 1539.96 -87.3345C1517.95 -109.059 1490.57 -125.353 1460.01 -130.784C1415.77 -138.19 1370.78 -122.884 1333.87 -99.9248C1313.58 -87.0875 1294.51 -70.7941 1281.8 -50.7976Z" stroke="#80BFFF" stroke-linecap="round" stroke-linejoin="round"/>
<path d="M1297.69 -43.3935C1290.35 -31.7906 1285.22 -19.2002 1283.75 -5.6223C1281.31 13.6336 1285.46 32.3958 1289.87 51.6518C1291.58 59.3048 1293.29 66.9577 1294.75 74.6107C1301.6 112.876 1295.49 148.178 1316.02 178.05C1337.05 208.415 1353.92 212.118 1355.38 251.37C1356.6 281.242 1347.32 307.163 1367.12 334.813C1389.36 365.178 1431.41 379.003 1469.3 383.199C1471.42 383.528 1473.46 383.775 1475.42 383.94C1521.62 388.137 1554.62 382.212 1601.07 397.271C1626.01 405.418 1647.52 414.552 1666.1 419.489C1684.68 424.427 1704.97 425.908 1722.57 412.083C1743.35 395.296 1748.24 361.722 1748.98 335.306C1748.98 332.344 1748.98 329.381 1748.98 326.419C1748.98 304.201 1746.29 285.685 1749.95 263.961C1756.8 222.98 1787.85 180.271 1817.67 141.76C1842.61 109.419 1871.45 77.3263 1878.05 36.5926C1884.9 -4.63484 1858.74 -54.5028 1816.45 -61.1684C1793.22 -64.8714 1771.71 -56.7246 1751.91 -44.1342C1719.15 -23.397 1687.86 5.73381 1648.25 2.52449C1641.41 2.03075 1634.81 0.631787 1628.45 -1.67234C1591.54 -15.0034 1569.05 -54.009 1539.22 -80.4242C1517.71 -99.4333 1491.55 -113.011 1462.95 -117.455C1421.88 -123.627 1379.58 -110.789 1345.36 -89.3115C1326.54 -77.4617 1309.42 -62.1557 1297.69 -43.3935Z" stroke="#80BFFF" stroke-linecap="round" stroke-linejoin="round"/>
<path d="M1313.33 -35.7393C1306.98 -25.3707 1302.58 -14.0147 1300.38 -1.91807C1297.2 15.3629 1298.67 32.6439 1301.84 50.4186C1303.07 57.331 1304.29 64.2434 1305.75 71.1558C1312.6 105.471 1317.49 137.811 1339.25 163.732C1364.18 193.357 1380.56 195.826 1380.32 237.053C1380.07 267.912 1367.61 294.327 1386.43 324.199C1405.74 355.304 1445.1 372.832 1481.53 375.054C1483.65 375.218 1485.68 375.301 1487.64 375.301C1532.62 376.041 1569.54 358.76 1613.78 373.079C1637.5 380.485 1656.81 393.816 1675.39 403.197C1694.21 412.578 1716.7 418.75 1735.77 407.641C1758.51 394.557 1763.4 361.229 1760.22 335.061C1759.73 332.098 1759.24 329.136 1758.75 326.173C1755.09 303.708 1747.51 283.465 1747.51 260.999C1747.51 217.797 1776.35 176.076 1805.45 140.033C1832.09 106.952 1862.9 74.3651 1870.47 32.1501C1878.05 -10.5585 1850.18 -63.6358 1805.94 -68.3263C1782.96 -70.7951 1763.15 -61.6608 1744.57 -48.5767C1714.02 -27.0989 1685.66 2.77251 1647.52 0.797544C1641 0.468384 1634.73 -0.683739 1628.7 -2.65871C1593.49 -13.7679 1568.8 -49.5641 1538.73 -73.2637C1517.46 -89.8041 1492.53 -100.666 1466.13 -104.123C1427.74 -109.307 1388.38 -98.6914 1357.09 -78.9417C1339.49 -67.8325 1324.09 -53.2671 1313.33 -35.7393Z" stroke="#80BFFF" stroke-linecap="round" stroke-linejoin="round"/>
<path d="M1313.82 49.1838C1317.49 85.9675 1334.85 122.504 1362.23 149.166C1391.81 177.803 1407.45 179.285 1405.25 222.734C1403.54 254.58 1388.14 281.489 1405.5 313.829C1422.61 345.182 1458.55 366.907 1494 366.907C1539.71 366.907 1582.49 334.566 1626.74 348.638C1648.74 355.797 1666.1 373.078 1684.92 386.903C1703.75 400.728 1728.44 411.837 1748.97 403.443C1773.67 393.569 1778.31 360.982 1771.47 334.813C1764.38 308.892 1748.97 284.452 1744.82 257.79C1737.97 212.859 1764.62 171.879 1793.22 138.304C1821.83 104.483 1854.58 71.1552 1862.9 27.459C1871.21 -16.484 1841.63 -73.0174 1795.18 -75.7329C1736.26 -79.1891 1705.7 -0.190528 1647.03 -0.684259C1604.74 -1.17799 1573.69 -41.6648 1538 -66.105C1470.04 -112.517 1367.85 -94.0014 1329.22 -28.0868C1315.78 -5.12782 1311.13 22.028 1313.82 49.1838Z" stroke="#80BFFF" stroke-linecap="round" stroke-linejoin="round"/>
</g>
<path d="M278.009 397.693C291.465 379.144 299.581 358.008 297.018 334.499C291.892 288.559 247.04 254.482 242.982 208.543C237.216 143.192 314.531 96.6056 318.803 31.2551C322.006 -14.9 285.698 -56.3102 243.41 -73.9959C195.568 -94.0539 137.475 -76.584 94.3318 -102.681C43.9272 -133.307 45.8496 -218.5 -10.9623 -237.696C-43.4262 -248.48 -79.094 -224.755 -94.6852 -194.129C-110.276 -163.287 -111.131 -127.484 -113.907 -92.9755C-117.538 -48.3301 -119.674 -10.802 -163.671 13.1383C-193.785 29.7455 -229.026 34.059 -261.49 45.2742C-319.156 65.548 -368.706 108.468 -396.899 163.25C-419.324 206.386 -424.023 268.717 -384.298 296.539C-360.59 313.147 -328.554 311.637 -300.575 304.088C-247.18 290.069 -188.446 264.188 -134.624 295.245C-88.7048 321.774 -86.9964 383.026 -62.4348 426.378C-41.2906 463.906 -8.39931 496.473 33.0349 507.257C91.3418 522.57 151.357 491.944 203.043 460.671C230.381 444.279 259.428 423.143 278.009 397.693Z" stroke="#80BFFF" stroke-linecap="round" stroke-linejoin="round"/>
<path d="M264.127 391.221C276.942 373.32 284.417 353.478 282.281 331.263C279.505 300.205 257.72 274.755 244.051 246.717C238.711 235.502 234.44 223.855 233.372 211.562C227.605 149.662 298.94 105.232 298.727 43.7637C298.513 20.6862 289.116 0.412429 276.515 -19.43C264.127 -38.841 247.468 -54.8011 226.537 -64.938C184.462 -85.4274 131.709 -73.1338 90.4879 -91.8978C88.2097 -92.9043 85.9314 -94.0546 83.6532 -95.3487C34.3166 -122.955 32.8215 -198.011 -22.0682 -216.344C-53.4642 -226.912 -87.2095 -206.639 -102.801 -179.894C-118.392 -152.935 -121.382 -121.23 -125.44 -89.3096C-130.353 -51.7816 -132.702 -17.7045 -162.176 6.23583C-165.308 8.68019 -168.654 11.0526 -172.214 13.3532C-199.125 30.1761 -230.094 35.9994 -259.14 48.0773C-311.253 69.8609 -357.813 112.565 -386.219 164.544C-397.966 186.111 -406.937 211.13 -407.364 235.933C-407.791 262.893 -397.325 288.99 -374.9 302.793C-351.192 317.675 -321.078 315.734 -294.167 307.97C-250.17 295.245 -202.969 273.893 -157.263 286.618C-149.574 288.774 -142.099 291.794 -134.837 295.892C-90.4131 320.91 -86.5687 379.144 -62.0072 420.338C-41.0765 455.278 -9.25339 485.689 30.2586 495.61C86.2162 509.844 143.455 481.591 193.006 451.611C219.062 435.651 246.4 415.593 264.127 391.221Z" stroke="#80BFFF" stroke-linecap="round" stroke-linejoin="round"/>
<path d="M250.244 384.536C262.205 367.713 269.466 348.949 267.758 328.028C265.408 298.696 245.973 274.324 233.585 247.796C228.673 237.228 224.828 226.228 223.547 214.366C217.78 156.133 282.708 113.428 278.437 56.4892C276.728 32.9802 266.262 14.6475 254.729 -6.92031C244.05 -27.1941 230.381 -44.2325 209.878 -55.8792C171.006 -77.6627 119.748 -67.7416 79.5949 -84.5645C77.3167 -85.571 75.1098 -86.6494 72.974 -87.7997C24.7053 -112.387 19.7931 -177.522 -33.3879 -195.207C-63.5025 -205.344 -95.3258 -188.521 -111.131 -165.659C-126.722 -142.582 -131.634 -114.975 -136.973 -85.6429C-143.594 -50.9187 -146.371 -17.7042 -172 6.45181C-174.706 8.89616 -177.696 11.2686 -180.971 13.5692C-204.251 30.8234 -231.162 37.7252 -257.005 50.8816C-303.351 74.1749 -347.135 116.663 -375.541 166.054C-388.569 188.484 -399.461 213.934 -400.743 240.031C-401.811 268.07 -389.637 295.892 -365.502 309.264C-342.009 322.205 -313.603 320.048 -287.76 311.852C-245.899 298.48 -201.047 276.697 -156.623 288.128C-149.361 289.997 -142.099 292.873 -134.838 296.755C-92.122 319.832 -86.142 375.046 -61.3669 414.084C-40.6498 446.867 -10.1078 474.905 27.482 483.964C81.0902 497.12 135.766 471.023 182.753 442.553C207.742 427.24 233.585 408.045 250.244 384.536Z" stroke="#80BFFF" stroke-linecap="round" stroke-linejoin="round"/>
<path d="M236.362 377.85C247.682 362.105 254.302 344.42 253.235 324.793C251.526 297.402 234.226 274.108 223.12 248.874C218.635 238.737 215.218 228.384 213.936 217.385C208.169 162.818 265.836 121.408 258.361 69.214C254.73 45.0581 243.196 29.0979 233.158 5.58896C223.761 -15.5475 213.295 -33.6645 193.006 -46.6052C157.338 -69.6828 107.788 -62.3497 68.7027 -77.4472C66.5669 -78.3099 64.4311 -79.2446 62.2954 -80.2511C15.0945 -101.819 6.76495 -156.817 -44.4939 -174.071C-73.327 -183.561 -103.442 -170.405 -119.246 -151.425C-135.051 -132.23 -141.672 -108.936 -148.506 -81.7607C-156.836 -50.056 -159.826 -17.4886 -181.825 6.66739C-184.245 9.11174 -186.808 11.4842 -189.514 13.7847C-209.59 31.2547 -232.229 39.4504 -254.869 53.4695C-295.449 78.4882 -336.669 120.545 -364.862 167.563C-378.958 190.857 -392.2 216.522 -393.908 243.913C-395.83 273.246 -381.948 303.009 -356.318 315.734C-333.038 326.95 -305.914 324.361 -281.566 315.734C-241.413 301.715 -199.124 279.285 -156.195 289.637C-149.076 291.219 -142.028 293.807 -135.051 297.402C-93.6169 318.969 -85.7144 371.164 -60.9393 407.829C-40.4357 438.24 -10.962 464.121 24.9192 472.532C75.9644 484.61 128.078 460.454 172.502 433.279C196.209 418.828 220.557 400.28 236.362 377.85Z" stroke="#80BFFF" stroke-linecap="round" stroke-linejoin="round"/>
<path d="M222.479 371.382C232.944 356.5 239.352 339.893 238.497 321.56C237.429 295.894 222.693 273.679 212.654 249.955C208.596 240.465 205.393 230.759 204.325 220.407C198.345 169.291 248.536 129.391 238.07 81.7256C232.731 57.1383 220.13 43.3349 211.373 18.1006C203.471 -3.89863 196.209 -22.8783 176.346 -37.5444C143.455 -61.7004 96.0406 -57.1712 57.81 -70.3275C55.6742 -71.0465 53.5384 -71.8373 51.4026 -72.7001C5.69685 -91.2484 -6.26344 -136.325 -55.8137 -152.717C-83.3653 -161.991 -111.558 -152.285 -127.362 -137.188C-143.381 -121.875 -151.71 -102.679 -160.04 -78.092C-169.865 -49.1911 -173.282 -17.0549 -191.65 6.66967C-193.643 9.2578 -195.779 11.7741 -198.057 14.2184C-214.93 31.904 -233.298 41.3939 -252.733 56.2757C-287.546 83.0198 -326.204 124.43 -354.396 169.075C-369.561 193.231 -384.725 219.328 -387.288 248.014C-389.851 278.424 -374.259 310.345 -346.921 321.991C-324.068 331.697 -298.439 328.677 -275.159 319.619C-236.928 304.953 -197.203 282.091 -155.555 290.934C-148.578 292.515 -141.815 294.96 -135.265 298.267C-95.3258 318.109 -85.2876 367.284 -60.299 401.577C-40.009 429.83 -11.8164 453.339 22.1425 460.888C70.6249 471.888 120.389 449.888 162.464 424.223C184.889 410.419 207.742 392.734 222.479 371.382Z" stroke="#80BFFF" stroke-linecap="round" stroke-linejoin="round"/>
<path d="M208.811 364.694C218.208 350.675 224.188 335.362 223.975 318.324C223.548 294.383 210.946 273.462 202.19 251.032C198.559 242.189 195.782 232.915 194.501 223.425C188.734 175.76 230.596 137.585 217.995 94.4495C210.519 69.2151 197.064 57.7842 189.589 30.6088C183.395 7.74687 179.123 -12.0956 159.474 -28.4871C129.787 -53.2901 84.081 -51.7804 46.9183 -62.9956C44.9249 -63.7146 42.8603 -64.4335 40.7245 -65.1524C-3.91342 -80.6812 -19.0775 -115.837 -66.9191 -131.581C-93.4028 -140.208 -119.673 -134.169 -135.691 -122.954C-151.71 -111.523 -161.962 -96.4257 -171.573 -74.4265C-183.106 -48.3295 -186.737 -16.8404 -201.687 6.88419C-203.182 9.47233 -204.891 11.8448 -206.599 14.4329C-220.055 32.3342 -234.365 43.3338 -250.597 58.8626C-279.643 87.3321 -315.738 128.311 -343.717 170.584C-360.162 195.603 -377.462 221.915 -380.666 252.11C-383.87 283.599 -366.783 317.461 -337.523 328.46C-315.097 336.656 -290.963 332.99 -268.751 323.5C-232.656 307.971 -195.28 284.678 -155.127 292.442C-148.292 293.736 -141.672 295.893 -135.264 298.913C-97.0336 317.245 -84.8596 363.185 -59.8709 395.536C-39.7945 421.202 -12.6701 442.554 19.5802 449.456C65.4996 459.161 112.7 439.319 152.212 415.163C173.57 402.007 194.714 385.184 208.811 364.694Z" stroke="#80BFFF" stroke-linecap="round" stroke-linejoin="round"/>
<path d="M194.927 358.009C203.684 345.069 209.237 330.834 209.237 315.09C209.664 292.875 199.199 273.032 191.724 252.111C188.734 243.7 186.171 235.288 184.889 226.446C179.123 182.232 212.227 145.566 197.704 106.96C188.093 81.2943 173.997 72.0201 168.017 43.3349C162.891 19.6103 162.037 -1.0949 142.814 -19.4276C115.904 -44.6619 72.12 -46.6029 36.0252 -55.8771C34.0318 -56.4522 32.0383 -57.0275 30.0449 -57.6026C-13.5251 -70.3276 -32.1063 -95.1306 -78.2393 -110.228C-103.442 -118.639 -127.79 -116.051 -143.808 -108.718C-160.04 -101.385 -172.214 -90.17 -183.106 -70.7589C-196.348 -47.4657 -200.193 -16.6237 -211.512 7.10088C-212.58 9.68902 -213.862 12.0615 -215.143 14.6496C-225.395 32.9823 -235.647 45.0604 -248.248 61.6676C-271.742 91.8625 -305.487 131.979 -333.038 172.095C-350.765 197.976 -369.987 224.72 -373.832 256.209C-377.89 288.777 -359.308 325.011 -328.126 334.716C-306.341 341.618 -283.488 337.089 -262.558 327.383C-228.171 311.207 -193.358 287.483 -154.487 293.953C-147.937 294.959 -141.601 296.901 -135.478 299.776C-98.5293 316.168 -84.6467 359.304 -59.4445 389.283C-39.5817 412.792 -13.5249 431.771 16.8032 437.81C60.3732 446.438 104.797 428.968 142.174 405.89C162.25 393.596 181.899 377.42 194.927 358.009Z" stroke="#80BFFF" stroke-linecap="round" stroke-linejoin="round"/>
<path d="M181.045 351.538C188.947 339.46 194.073 326.304 194.714 311.853C195.568 291.58 187.453 272.816 181.259 253.189C178.696 245.425 176.346 237.444 175.279 229.249C169.298 188.701 193.646 153.761 177.628 119.684C165.24 93.3713 150.717 86.4696 146.232 55.8433C142.601 31.256 144.737 9.90378 126.155 -10.1543C101.808 -36.0357 60.3732 -41.2119 25.1327 -48.7606C23.2817 -49.192 21.3596 -49.6234 19.3662 -50.0548C-23.1359 -59.7603 -45.1345 -74.642 -89.3452 -89.0925C-113.48 -96.8569 -135.905 -97.9353 -152.137 -94.4844C-168.156 -91.0336 -182.252 -84.1319 -194.639 -66.8776C-209.59 -46.6039 -213.648 -16.1932 -221.337 7.31575C-221.977 9.90389 -222.832 12.2764 -223.9 14.8645C-230.521 33.4128 -236.714 47.0005 -246.112 64.2547C-263.839 96.3908 -295.235 135.644 -322.359 173.604C-341.368 200.348 -362.726 227.523 -367.211 260.306C-371.909 293.952 -351.833 332.559 -318.729 341.186C-297.371 346.793 -276.013 341.401 -256.15 331.265C-223.686 314.442 -191.436 290.07 -154.059 295.462C-147.652 296.325 -141.458 297.978 -135.478 300.422C-100.238 315.304 -84.2192 355.42 -58.8034 383.027C-39.3677 404.164 -14.3792 420.987 14.2403 426.163C55.2474 433.927 97.1087 418.398 131.922 396.831C150.717 385.184 168.871 369.871 181.045 351.538Z" stroke="#80BFFF" stroke-linecap="round" stroke-linejoin="round"/>
<path d="M167.162 344.85C174.424 333.851 179.123 321.773 180.19 308.617C181.685 290.068 175.705 272.598 170.579 254.266C168.657 247.148 166.735 239.815 165.453 232.266C159.687 195.385 174.424 162.171 157.337 132.192C142.173 105.663 127.436 100.703 124.446 68.3509C122.097 42.9009 127.436 20.9017 109.282 -1.09749C87.4972 -27.4102 48.4124 -35.8217 14.2398 -41.4293C12.3888 -41.8607 10.5378 -42.2202 8.68682 -42.5077C-32.7474 -49.1938 -58.1631 -54.1542 -100.665 -67.742C-123.518 -75.2907 -144.235 -79.8201 -160.254 -80.2514C-176.486 -80.6828 -192.504 -77.8789 -206.387 -63.2128C-222.832 -45.7428 -226.89 -15.7635 -231.162 7.31404C-231.589 9.90218 -232.016 12.4903 -232.443 15.0784C-235.861 34.0581 -237.569 48.94 -243.977 67.0569C-255.937 100.918 -284.984 139.309 -311.681 175.112C-332.184 202.719 -355.251 230.11 -360.59 264.403C-365.716 299.127 -344.358 340.106 -309.331 347.439C-288.614 351.968 -268.538 345.713 -249.957 335.145C-219.415 317.675 -189.514 292.656 -153.419 296.754C-147.297 297.473 -141.388 298.983 -135.692 301.283C-101.947 314.44 -84.0062 351.536 -58.3768 376.771C-39.1548 395.751 -15.2338 409.985 11.4635 414.73C50.1212 421.2 89.4196 407.828 121.67 387.77C139.397 376.555 156.056 362.32 167.162 344.85Z" stroke="#80BFFF" stroke-linecap="round" stroke-linejoin="round"/>
<path d="M153.279 338.382C159.687 328.245 164.172 317.245 165.454 305.383C167.589 288.56 163.959 272.169 160.114 255.346C158.619 248.66 157.124 241.974 155.843 235.288C149.862 201.858 155.202 171.016 137.261 144.919C118.893 118.39 104.156 115.155 102.875 80.8621C101.807 54.765 109.923 32.1188 92.6233 7.96285C73.1877 -18.5656 36.4521 -30.6435 3.34743 -34.31C1.49641 -34.5976 -0.283408 -34.8134 -1.99204 -34.9572C-42.3584 -38.6237 -71.1915 -33.4473 -111.771 -46.6037C-133.556 -53.7211 -152.351 -61.7012 -168.583 -66.0147C-184.815 -70.3283 -202.542 -71.6224 -217.92 -59.5444C-236.074 -44.8783 -240.346 -15.5461 -240.986 7.5315C-240.986 10.1196 -240.986 12.7079 -240.986 15.296C-240.986 34.707 -238.637 50.8829 -241.841 69.8626C-247.821 105.665 -274.945 142.977 -301.002 176.623C-322.787 204.877 -347.989 232.915 -353.756 268.502C-359.736 304.52 -336.883 348.088 -299.934 353.911C-279.644 357.146 -260.849 350.029 -243.549 339.029C-214.93 320.912 -187.592 295.462 -152.992 298.266C-147.012 298.697 -141.245 299.919 -135.692 301.932C-103.442 313.579 -83.7925 347.656 -57.7359 370.734C-38.941 387.341 -16.0882 399.203 8.90045 403.085C44.7816 408.477 81.7307 397.262 111.632 378.498C128.077 368.145 143.028 354.773 153.279 338.382Z" stroke="#80BFFF" stroke-linecap="round" stroke-linejoin="round"/>
<path d="M139.611 331.695C145.164 322.636 149.008 312.715 150.931 302.147C153.707 287.05 152.426 271.952 149.649 256.423C148.581 250.384 147.513 244.345 146.232 238.306C140.252 208.327 135.98 180.073 116.972 157.427C95.1865 131.545 80.8769 129.389 81.0905 93.3704C81.3041 66.4106 92.1966 43.3331 75.751 17.236C58.8783 -9.93947 24.4921 -25.2526 -7.33106 -27.1937C-9.18208 -27.3375 -10.9619 -27.4094 -12.6705 -27.4094C-51.969 -28.0565 -84.2193 -12.9589 -122.877 -25.4683C-143.594 -31.9386 -160.467 -43.5853 -176.699 -51.781C-193.144 -59.9768 -212.794 -65.3687 -229.453 -55.6632C-249.315 -44.2323 -253.587 -15.1156 -250.811 7.74626C-250.383 10.3344 -249.956 12.9225 -249.529 15.5106C-246.325 35.1373 -239.705 52.823 -239.705 72.4497C-239.705 110.193 -264.907 146.643 -290.323 178.132C-313.603 207.033 -340.513 235.502 -347.134 272.383C-353.755 309.696 -329.407 356.067 -290.75 360.165C-270.673 362.321 -253.373 354.341 -237.141 342.91C-210.444 324.146 -185.669 298.049 -152.351 299.775C-146.655 300.062 -141.173 301.069 -135.905 302.794C-105.15 312.5 -83.5786 343.773 -57.3084 364.478C-38.7271 378.928 -16.942 388.418 6.12452 391.438C39.6563 395.967 74.0424 386.693 101.38 369.439C116.758 359.733 130.214 347.008 139.611 331.695Z" stroke="#80BFFF" stroke-linecap="round" stroke-linejoin="round"/>
<path d="M139.184 257.502C135.98 225.366 120.816 193.446 96.8953 170.152C71.0523 145.134 57.3831 143.84 59.3053 105.88C60.8004 78.0578 74.2559 54.5489 59.0918 26.295C44.1413 -1.09611 12.7454 -20.0758 -18.2235 -20.0758C-58.1627 -20.0758 -95.539 8.17812 -134.197 -4.11553C-153.419 -10.3702 -168.583 -25.4677 -185.028 -37.5457C-201.474 -49.6236 -223.045 -59.3292 -240.986 -51.9961C-262.557 -43.369 -266.615 -14.8995 -260.635 7.96241C-254.441 30.6086 -240.986 51.9608 -237.355 75.254C-231.375 114.507 -254.655 150.31 -279.644 179.642C-304.632 209.19 -333.252 238.307 -340.513 276.482C-347.775 314.873 -321.932 364.263 -281.352 366.635C-229.88 369.655 -203.182 300.638 -151.924 301.069C-114.974 301.501 -87.8501 336.872 -56.6676 358.224C2.70721 398.771 91.9831 382.595 125.728 325.009C137.475 304.951 141.533 281.227 139.184 257.502Z" stroke="#80BFFF" stroke-linecap="round" stroke-linejoin="round"/>
</g>
<defs>
<filter id="filter0_f_570_11257" x="-654.547" y="-735.541" width="2001.36" height="1908.15" filterUnits="userSpaceOnUse" color-interpolation-filters="sRGB">
<feFlood flood-opacity="0" result="BackgroundImageFix"/>
<feBlend mode="normal" in="SourceGraphic" in2="BackgroundImageFix" result="shape"/>
<feGaussianBlur stdDeviation="294.773" result="effect1_foregroundBlur_570_11257"/>
</filter>
<filter id="filter1_f_570_11257" x="313.75" y="-859.25" width="2127.5" height="2029.75" filterUnits="userSpaceOnUse" color-interpolation-filters="sRGB">
<feFlood flood-opacity="0" result="BackgroundImageFix"/>
<feBlend mode="normal" in="SourceGraphic" in2="BackgroundImageFix" result="shape"/>
<feGaussianBlur stdDeviation="319.125" result="effect1_foregroundBlur_570_11257"/>
</filter>
<linearGradient id="paint0_linear_570_11257" x1="601.034" y1="-262.642" x2="140.575" y2="737.833" gradientUnits="userSpaceOnUse">
<stop stop-color="#3F37C9"/>
<stop offset="1" stop-color="#4895EF"/>
<stop offset="1" stop-color="#4895EF"/>
</linearGradient>
<clipPath id="clip0_570_11257">
<rect width="1620" height="719" rx="20" fill="white"/>
</clipPath>
</defs>
</svg>
