<svg width="240" height="240" viewBox="0 0 240 240" fill="none" xmlns="http://www.w3.org/2000/svg">
<path d="M63.3215 224.563C88.6624 239.518 118.483 243.806 146.731 236.557C174.978 229.308 199.536 211.066 215.418 185.534C231.3 160.001 237.317 129.092 232.247 99.0796C227.177 69.0675 211.4 42.2018 188.119 23.9361C164.838 5.67042 135.797 -2.62644 106.892 0.729733C77.9868 4.08591 51.3833 18.8436 32.4817 42.0071C13.5802 65.1706 3.79705 95.0041 5.11821 125.452C6.43938 155.899 18.7659 184.679 39.5955 205.949L119.5 120L63.3215 224.563Z" fill="white"/>
<path d="M35.1472 204.853C43.3311 213.037 52.6558 219.994 62.8318 225.507L120 120L35.1472 204.853Z" fill="url(#paint0_linear_12_3)"/>
<g filter="url(#filter0_d_12_3)">
<ellipse cx="119.5" cy="120" rx="62.5" ry="63" transform="rotate(-180 119.5 120)" fill="#161616"/>
</g>
<path d="M98.93 122.59V119.32L108.83 106H113.93L104.24 119.32L101.87 118.63H118.4V122.59H98.93ZM110.24 127V122.59L110.39 118.63V114.7H114.98V127H110.24ZM121.975 127L136.315 106H139.885L125.545 127H121.975ZM123.805 117.34C122.785 117.34 121.885 117.11 121.105 116.65C120.325 116.17 119.705 115.5 119.245 114.64C118.805 113.76 118.585 112.73 118.585 111.55C118.585 110.37 118.805 109.35 119.245 108.49C119.705 107.63 120.325 106.96 121.105 106.48C121.885 106 122.785 105.76 123.805 105.76C124.825 105.76 125.725 106 126.505 106.48C127.285 106.96 127.895 107.63 128.335 108.49C128.775 109.35 128.995 110.37 128.995 111.55C128.995 112.73 128.775 113.76 128.335 114.64C127.895 115.5 127.285 116.17 126.505 116.65C125.725 117.11 124.825 117.34 123.805 117.34ZM123.805 114.88C124.465 114.88 124.995 114.61 125.395 114.07C125.795 113.51 125.995 112.67 125.995 111.55C125.995 110.43 125.795 109.6 125.395 109.06C124.995 108.5 124.465 108.22 123.805 108.22C123.165 108.22 122.635 108.5 122.215 109.06C121.815 109.6 121.615 110.43 121.615 111.55C121.615 112.65 121.815 113.48 122.215 114.04C122.635 114.6 123.165 114.88 123.805 114.88ZM138.055 127.24C137.055 127.24 136.155 127.01 135.355 126.55C134.575 126.07 133.965 125.4 133.525 124.54C133.085 123.66 132.865 122.63 132.865 121.45C132.865 120.27 133.085 119.25 133.525 118.39C133.965 117.53 134.575 116.86 135.355 116.38C136.155 115.9 137.055 115.66 138.055 115.66C139.095 115.66 140.005 115.9 140.785 116.38C141.565 116.86 142.175 117.53 142.615 118.39C143.055 119.25 143.275 120.27 143.275 121.45C143.275 122.63 143.055 123.66 142.615 124.54C142.175 125.4 141.565 126.07 140.785 126.55C140.005 127.01 139.095 127.24 138.055 127.24ZM138.055 124.78C138.715 124.78 139.245 124.51 139.645 123.97C140.045 123.41 140.245 122.57 140.245 121.45C140.245 120.35 140.045 119.52 139.645 118.96C139.245 118.4 138.715 118.12 138.055 118.12C137.415 118.12 136.885 118.4 136.465 118.96C136.065 119.5 135.865 120.33 135.865 121.45C135.865 122.57 136.065 123.41 136.465 123.97C136.885 124.51 137.415 124.78 138.055 124.78Z" fill="white"/>
<defs>
<filter id="filter0_d_12_3" x="26" y="30" width="187" height="188" filterUnits="userSpaceOnUse" color-interpolation-filters="sRGB">
<feFlood flood-opacity="0" result="BackgroundImageFix"/>
<feColorMatrix in="SourceAlpha" type="matrix" values="0 0 0 0 0 0 0 0 0 0 0 0 0 0 0 0 0 0 127 0" result="hardAlpha"/>
<feMorphology radius="8" operator="dilate" in="SourceAlpha" result="effect1_dropShadow_12_3"/>
<feOffset dy="4"/>
<feGaussianBlur stdDeviation="11.5"/>
<feColorMatrix type="matrix" values="0 0 0 0 0 0 0 0 0 0 0 0 0 0 0 0 0 0 0.25 0"/>
<feBlend mode="normal" in2="BackgroundImageFix" result="effect1_dropShadow_12_3"/>
<feBlend mode="normal" in="SourceGraphic" in2="effect1_dropShadow_12_3" result="shape"/>
</filter>
<linearGradient id="paint0_linear_12_3" x1="-38.4" y1="45.6" x2="276" y2="208.8" gradientUnits="userSpaceOnUse">
<stop stop-color="#3F37C9"/>
<stop offset="1" stop-color="#4895EF"/>
<stop offset="1" stop-color="#4895EF"/>
</linearGradient>
</defs>
</svg>
