<svg width="322" height="348" viewBox="0 0 322 348" fill="none" xmlns="http://www.w3.org/2000/svg">
<g filter="url(#filter0_d_557_11233)">
<path d="M113.871 25.9129C109.539 28.4258 108.677 30.6969 110.162 37.6003C111.615 45.2713 111.018 46.7075 104.352 49.8935C88.0221 58.141 68.0545 80.078 55.2637 103.232C35.0651 140.152 32.1746 173.092 45.419 213.768C54.8319 242.909 72.4729 266.39 98.6427 284.379C108.503 291.396 108.57 291.629 105.647 297.275C104.054 300.516 102.994 303.855 103.196 304.555C104.071 307.59 130.026 319.573 133.527 318.563C135.161 318.092 137.621 314.349 138.78 310.476L141.065 303.497L152.483 306.272C166.94 309.941 180.455 310.342 196.165 307.835C207.539 306.073 208.841 306.203 213.395 313.233L218.552 320.595L233.055 315.655C241.089 312.833 247.89 310.114 248.388 309.212C248.954 308.543 247.976 304.274 246.531 300.14C243.911 292.806 244.01 292.271 253.939 286.375C259.837 283.158 270.094 274.891 277.218 268.034C289.869 255.791 305.231 233.665 303.953 229.23C303.616 228.063 296.933 224.175 288.85 220.691C273.218 213.822 273.684 213.687 262.246 230.131C240.764 260.847 199.796 277.463 159.975 271.752C141.483 268.994 112.848 252.98 100.368 238.628C59.646 191.211 67.1198 121.556 116.781 84.2319C138.597 67.8295 180.323 60.8556 205.969 69.1358C211.512 70.8242 217.153 71.9785 218.554 71.5747C222.288 70.498 233.275 46.347 232.23 41.845C230.076 34.3759 190.018 26.9645 166.767 29.623C146.519 32.1742 146.219 32.0081 142.162 24.0764C138.541 16.7777 138.007 16.6789 128.738 19.6041C123.67 21.318 116.87 24.0371 113.871 25.9129Z" fill="url(#paint0_linear_557_11233)"/>
<path d="M123.811 94.5924C108.123 105.942 91.099 131.075 87.8695 147.933C77.3905 202.781 110.172 250.717 165.285 260.361C179.172 262.931 183.575 262.42 203.181 256.767C223.721 250.845 226.388 249.57 238.939 237.862C266.672 212.169 276.466 177.744 266.237 142.266C260.652 122.893 256.774 119.966 245.642 125.198C241.643 127.109 227.108 132.817 213.072 137.622C178.433 149.884 179.632 148.78 183.938 163.718C189.726 183.792 189.124 183.459 213.929 174.791C228.598 169.55 235.667 167.765 236.206 169.632C239.436 180.836 226.084 206.427 212.227 216.237C198.702 225.446 185.73 228.68 170.074 226.115C153.651 223.519 138.746 213.911 129.87 199.785C121.196 186.359 119.917 181.924 120.413 166.107C120.877 151.057 130.709 132.548 143.099 122.908C159.353 110.89 187.676 108.286 203.214 117.458C209.896 121.346 212.432 121.374 227.604 116.999C236.94 114.308 245.074 110.951 245.37 109.349C247.719 100.835 213.538 81.3635 190.072 78.0164C168.142 74.7324 141.964 81.2686 123.811 94.5924Z" fill="url(#paint1_linear_557_11233)"/>
</g>
<defs>
<filter id="filter0_d_557_11233" x="33.3445" y="17.8083" width="274.683" height="310.786" filterUnits="userSpaceOnUse" color-interpolation-filters="sRGB">
<feFlood flood-opacity="0" result="BackgroundImageFix"/>
<feColorMatrix in="SourceAlpha" type="matrix" values="0 0 0 0 0 0 0 0 0 0 0 0 0 0 0 0 0 0 127 0" result="hardAlpha"/>
<feOffset dy="4"/>
<feGaussianBlur stdDeviation="2"/>
<feComposite in2="hardAlpha" operator="out"/>
<feColorMatrix type="matrix" values="0 0 0 0 0 0 0 0 0 0 0 0 0 0 0 0 0 0 0.25 0"/>
<feBlend mode="normal" in2="BackgroundImageFix" result="effect1_dropShadow_557_11233"/>
<feBlend mode="normal" in="SourceGraphic" in2="effect1_dropShadow_557_11233" result="shape"/>
</filter>
<linearGradient id="paint0_linear_557_11233" x1="32.9426" y1="311.99" x2="329.507" y2="79.7741" gradientUnits="userSpaceOnUse">
<stop stop-color="#3F37C9"/>
<stop offset="1" stop-color="#4895EF"/>
<stop offset="1" stop-color="#4895EF"/>
</linearGradient>
<linearGradient id="paint1_linear_557_11233" x1="76.8635" y1="256.992" x2="273.298" y2="69.456" gradientUnits="userSpaceOnUse">
<stop stop-color="#3F37C9"/>
<stop offset="1" stop-color="#4895EF"/>
<stop offset="1" stop-color="#4895EF"/>
</linearGradient>
</defs>
</svg>
