<svg width="96" height="96" viewBox="0 0 96 96" fill="none" xmlns="http://www.w3.org/2000/svg">
<circle opacity="0.1" cx="48" cy="48" r="48" fill="url(#paint0_linear_17_2481)"/>
<path d="M64.6668 42.1666C64.6668 36.1835 59.8166 31.3333 53.8335 31.3333C50.362 31.3333 47.272 32.9704 45.2893 35.5119C53.7453 35.8389 60.5002 42.7972 60.5002 51.3333C60.5002 51.5171 60.497 51.7002 60.4908 51.8826L61.0446 52.0307C62.6551 52.4617 64.1286 50.9882 63.6976 49.3777L63.4854 48.5843C63.3139 47.9434 63.417 47.2663 63.6926 46.6628C64.3182 45.2932 64.6668 43.7706 64.6668 42.1666Z" fill="#07BAB3"/>
<path fill-rule="evenodd" clip-rule="evenodd" d="M58.0002 51.3333C58.0002 58.697 52.0306 64.6666 44.6668 64.6666C42.6077 64.6666 40.6575 64.1998 38.9164 63.3662C38.318 63.0798 37.6401 62.9792 36.9991 63.1507L34.9557 63.6974C33.3452 64.1283 31.8718 62.6549 32.3027 61.0443L32.8494 59.0009C33.0209 58.36 32.9203 57.6821 32.6338 57.0837C31.8003 55.3426 31.3335 53.3924 31.3335 51.3333C31.3335 43.9695 37.303 37.9999 44.6668 37.9999C52.0306 37.9999 58.0002 43.9695 58.0002 51.3333ZM38.8335 52.9999C39.754 52.9999 40.5002 52.2537 40.5002 51.3333C40.5002 50.4128 39.754 49.6666 38.8335 49.6666C37.913 49.6666 37.1668 50.4128 37.1668 51.3333C37.1668 52.2537 37.913 52.9999 38.8335 52.9999ZM44.6668 52.9999C45.5873 52.9999 46.3335 52.2537 46.3335 51.3333C46.3335 50.4128 45.5873 49.6666 44.6668 49.6666C43.7464 49.6666 43.0002 50.4128 43.0002 51.3333C43.0002 52.2537 43.7464 52.9999 44.6668 52.9999ZM50.5002 52.9999C51.4206 52.9999 52.1668 52.2537 52.1668 51.3333C52.1668 50.4128 51.4206 49.6666 50.5002 49.6666C49.5797 49.6666 48.8335 50.4128 48.8335 51.3333C48.8335 52.2537 49.5797 52.9999 50.5002 52.9999Z" fill="url(#paint1_linear_17_2481)"/>
<defs>
<linearGradient id="paint0_linear_17_2481" x1="-15.36" y1="18.24" x2="110.4" y2="83.52" gradientUnits="userSpaceOnUse">
<stop stop-color="#3F37C9"/>
<stop offset="1" stop-color="#4895EF"/>
<stop offset="1" stop-color="#4895EF"/>
</linearGradient>
<linearGradient id="paint1_linear_17_2481" x1="26.0002" y1="37.6666" x2="69.6668" y2="60.3333" gradientUnits="userSpaceOnUse">
<stop stop-color="#3F37C9"/>
<stop offset="1" stop-color="#4895EF"/>
<stop offset="1" stop-color="#4895EF"/>
</linearGradient>
</defs>
</svg>
