<svg width="243" height="240" viewBox="0 0 243 240" fill="none" xmlns="http://www.w3.org/2000/svg">
<path d="M167.588 231.409C195.545 220.22 218.273 198.929 231.262 171.762C244.251 144.595 246.552 113.537 237.707 84.7533C228.862 55.969 209.519 31.5621 183.516 16.3765C157.513 1.19079 126.751 -3.66363 97.3351 2.77664C67.9194 9.21691 42.0002 26.4811 24.7213 51.1429C7.44251 75.8047 0.0671945 106.061 4.05911 135.908C8.05103 165.755 23.1184 193.01 46.2709 212.264C69.4233 231.518 98.9685 241.364 129.043 239.848L123 120L167.588 231.409Z" fill="white"/>
<path d="M120 240C136.058 240 151.953 236.777 166.742 230.522L120 120L120 240Z" fill="url(#paint0_linear_12_5)"/>
<g filter="url(#filter0_d_12_5)">
<ellipse cx="126.5" cy="120" rx="62.5" ry="63" transform="rotate(-180 126.5 120)" fill="#161616"/>
</g>
<path d="M113.31 127.36C111.85 127.36 110.4 127.17 108.96 126.79C107.54 126.39 106.32 125.83 105.3 125.11L107.22 121.39C108.02 121.97 108.94 122.43 109.98 122.77C111.04 123.11 112.11 123.28 113.19 123.28C114.41 123.28 115.37 123.04 116.07 122.56C116.77 122.08 117.12 121.41 117.12 120.55C117.12 120.01 116.98 119.53 116.7 119.11C116.42 118.69 115.92 118.37 115.2 118.15C114.5 117.93 113.51 117.82 112.23 117.82H106.86L107.94 106H120.75V109.9H109.68L112.2 107.68L111.45 116.11L108.93 113.89H113.37C115.45 113.89 117.12 114.18 118.38 114.76C119.66 115.32 120.59 116.09 121.17 117.07C121.75 118.05 122.04 119.16 122.04 120.4C122.04 121.64 121.73 122.79 121.11 123.85C120.49 124.89 119.53 125.74 118.23 126.4C116.95 127.04 115.31 127.36 113.31 127.36ZM126.749 127L141.089 106H144.659L130.319 127H126.749ZM128.579 117.34C127.559 117.34 126.659 117.11 125.879 116.65C125.099 116.17 124.479 115.5 124.019 114.64C123.579 113.76 123.359 112.73 123.359 111.55C123.359 110.37 123.579 109.35 124.019 108.49C124.479 107.63 125.099 106.96 125.879 106.48C126.659 106 127.559 105.76 128.579 105.76C129.599 105.76 130.499 106 131.279 106.48C132.059 106.96 132.669 107.63 133.109 108.49C133.549 109.35 133.769 110.37 133.769 111.55C133.769 112.73 133.549 113.76 133.109 114.64C132.669 115.5 132.059 116.17 131.279 116.65C130.499 117.11 129.599 117.34 128.579 117.34ZM128.579 114.88C129.239 114.88 129.769 114.61 130.169 114.07C130.569 113.51 130.769 112.67 130.769 111.55C130.769 110.43 130.569 109.6 130.169 109.06C129.769 108.5 129.239 108.22 128.579 108.22C127.939 108.22 127.409 108.5 126.989 109.06C126.589 109.6 126.389 110.43 126.389 111.55C126.389 112.65 126.589 113.48 126.989 114.04C127.409 114.6 127.939 114.88 128.579 114.88ZM142.829 127.24C141.829 127.24 140.929 127.01 140.129 126.55C139.349 126.07 138.739 125.4 138.299 124.54C137.859 123.66 137.639 122.63 137.639 121.45C137.639 120.27 137.859 119.25 138.299 118.39C138.739 117.53 139.349 116.86 140.129 116.38C140.929 115.9 141.829 115.66 142.829 115.66C143.869 115.66 144.779 115.9 145.559 116.38C146.339 116.86 146.949 117.53 147.389 118.39C147.829 119.25 148.049 120.27 148.049 121.45C148.049 122.63 147.829 123.66 147.389 124.54C146.949 125.4 146.339 126.07 145.559 126.55C144.779 127.01 143.869 127.24 142.829 127.24ZM142.829 124.78C143.489 124.78 144.019 124.51 144.419 123.97C144.819 123.41 145.019 122.57 145.019 121.45C145.019 120.35 144.819 119.52 144.419 118.96C144.019 118.4 143.489 118.12 142.829 118.12C142.189 118.12 141.659 118.4 141.239 118.96C140.839 119.5 140.639 120.33 140.639 121.45C140.639 122.57 140.839 123.41 141.239 123.97C141.659 124.51 142.189 124.78 142.829 124.78Z" fill="white"/>
<defs>
<filter id="filter0_d_12_5" x="33" y="30" width="187" height="188" filterUnits="userSpaceOnUse" color-interpolation-filters="sRGB">
<feFlood flood-opacity="0" result="BackgroundImageFix"/>
<feColorMatrix in="SourceAlpha" type="matrix" values="0 0 0 0 0 0 0 0 0 0 0 0 0 0 0 0 0 0 127 0" result="hardAlpha"/>
<feMorphology radius="8" operator="dilate" in="SourceAlpha" result="effect1_dropShadow_12_5"/>
<feOffset dy="4"/>
<feGaussianBlur stdDeviation="11.5"/>
<feColorMatrix type="matrix" values="0 0 0 0 0 0 0 0 0 0 0 0 0 0 0 0 0 0 0.25 0"/>
<feBlend mode="normal" in2="BackgroundImageFix" result="effect1_dropShadow_12_5"/>
<feBlend mode="normal" in="SourceGraphic" in2="effect1_dropShadow_12_5" result="shape"/>
</filter>
<linearGradient id="paint0_linear_12_5" x1="-38.4" y1="45.6" x2="276" y2="208.8" gradientUnits="userSpaceOnUse">
<stop stop-color="#3F37C9"/>
<stop offset="1" stop-color="#4895EF"/>
<stop offset="1" stop-color="#4895EF"/>
</linearGradient>
</defs>
</svg>
