<svg width="125" height="126" viewBox="0 0 125 126" fill="none" xmlns="http://www.w3.org/2000/svg">
<circle cx="62.5" cy="62.5488" r="62.5" fill="url(#paint0_linear_17_2848)"/>
<path d="M50.4025 87.72C47.1225 87.72 44.0625 87.14 41.2225 85.98C38.3825 84.82 35.9025 83.2 33.7825 81.12C31.6625 79.04 30.0025 76.6 28.8025 73.8C27.6425 70.96 27.0625 67.9 27.0625 64.62C27.0625 61.3 27.6425 58.24 28.8025 55.44C29.9625 52.64 31.6025 50.2 33.7225 48.12C35.8425 46.04 38.3225 44.44 41.1625 43.32C44.0025 42.16 47.0825 41.58 50.4025 41.58C53.7225 41.58 56.8025 42.16 59.6425 43.32C62.4825 44.48 64.9625 46.1 67.0825 48.18C69.2025 50.22 70.8425 52.64 72.0025 55.44C73.2025 58.24 73.8025 61.3 73.8025 64.62C73.8025 67.9 73.2025 70.96 72.0025 73.8C70.8025 76.6 69.1425 79.04 67.0225 81.12C64.9025 83.2 62.4225 84.82 59.5825 85.98C56.7825 87.14 53.7225 87.72 50.4025 87.72ZM50.4025 80.28C52.6025 80.28 54.6225 79.9 56.4625 79.14C58.3025 78.34 59.9025 77.24 61.2625 75.84C62.6625 74.44 63.7225 72.78 64.4425 70.86C65.2025 68.94 65.5825 66.86 65.5825 64.62C65.5825 62.38 65.2025 60.32 64.4425 58.44C63.7225 56.52 62.6625 54.86 61.2625 53.46C59.9025 52.02 58.3025 50.92 56.4625 50.16C54.6225 49.4 52.6025 49.02 50.4025 49.02C48.2425 49.02 46.2425 49.4 44.4025 50.16C42.5625 50.92 40.9425 52.02 39.5425 53.46C38.1825 54.86 37.1225 56.52 36.3625 58.44C35.6025 60.32 35.2225 62.38 35.2225 64.62C35.2225 66.86 35.6025 68.94 36.3625 70.86C37.1225 72.78 38.1825 74.44 39.5425 75.84C40.9425 77.24 42.5625 78.34 44.4025 79.14C46.2425 79.9 48.2425 80.28 50.4025 80.28ZM60.7225 92.4L46.8025 69.12H55.3225L69.4225 92.4H60.7225ZM87.1183 87V49.26H78.4783V42.3H95.2783V87H87.1183Z" fill="white"/>
<defs>
<linearGradient id="paint0_linear_17_2848" x1="-20" y1="23.7988" x2="143.75" y2="108.799" gradientUnits="userSpaceOnUse">
<stop stop-color="#3F37C9"/>
<stop offset="1" stop-color="#4895EF"/>
<stop offset="1" stop-color="#4895EF"/>
</linearGradient>
</defs>
</svg>
