<svg width="125" height="126" viewBox="0 0 125 126" fill="none" xmlns="http://www.w3.org/2000/svg">
<circle cx="62.5" cy="62.5488" r="62.5" fill="url(#paint0_linear_17_2845)"/>
<path d="M43.6623 87.72C40.3823 87.72 37.3223 87.14 34.4823 85.98C31.6423 84.82 29.1623 83.2 27.0423 81.12C24.9223 79.04 23.2623 76.6 22.0623 73.8C20.9023 70.96 20.3223 67.9 20.3223 64.62C20.3223 61.3 20.9023 58.24 22.0623 55.44C23.2223 52.64 24.8623 50.2 26.9823 48.12C29.1023 46.04 31.5823 44.44 34.4223 43.32C37.2623 42.16 40.3423 41.58 43.6623 41.58C46.9823 41.58 50.0623 42.16 52.9023 43.32C55.7423 44.48 58.2223 46.1 60.3423 48.18C62.4623 50.22 64.1023 52.64 65.2623 55.44C66.4623 58.24 67.0623 61.3 67.0623 64.62C67.0623 67.9 66.4623 70.96 65.2623 73.8C64.0623 76.6 62.4023 79.04 60.2823 81.12C58.1623 83.2 55.6823 84.82 52.8423 85.98C50.0423 87.14 46.9823 87.72 43.6623 87.72ZM43.6623 80.28C45.8623 80.28 47.8823 79.9 49.7223 79.14C51.5623 78.34 53.1623 77.24 54.5223 75.84C55.9223 74.44 56.9823 72.78 57.7023 70.86C58.4623 68.94 58.8423 66.86 58.8423 64.62C58.8423 62.38 58.4623 60.32 57.7023 58.44C56.9823 56.52 55.9223 54.86 54.5223 53.46C53.1623 52.02 51.5623 50.92 49.7223 50.16C47.8823 49.4 45.8623 49.02 43.6623 49.02C41.5023 49.02 39.5023 49.4 37.6623 50.16C35.8223 50.92 34.2023 52.02 32.8023 53.46C31.4423 54.86 30.3823 56.52 29.6223 58.44C28.8623 60.32 28.4823 62.38 28.4823 64.62C28.4823 66.86 28.8623 68.94 29.6223 70.86C30.3823 72.78 31.4423 74.44 32.8023 75.84C34.2023 77.24 35.8223 78.34 37.6623 79.14C39.5023 79.9 41.5023 80.28 43.6623 80.28ZM53.9823 92.4L40.0623 69.12H48.5823L62.6823 92.4H53.9823ZM87.578 87.72C85.138 87.72 82.818 87.28 80.618 86.4C78.458 85.48 76.598 84.2 75.038 82.56C73.518 80.88 72.478 78.9 71.918 76.62L79.058 74.1C79.778 76.14 80.878 77.7 82.358 78.78C83.838 79.82 85.578 80.34 87.578 80.34C89.178 80.34 90.558 80.04 91.718 79.44C92.918 78.84 93.858 77.98 94.538 76.86C95.218 75.7 95.558 74.34 95.558 72.78C95.558 71.22 95.218 69.9 94.538 68.82C93.898 67.7 92.978 66.84 91.778 66.24C90.578 65.64 89.158 65.34 87.518 65.34C86.758 65.34 85.958 65.42 85.118 65.58C84.318 65.74 83.598 65.98 82.958 66.3L81.098 62.4L92.678 49.2H74.438V42.3H101.858V48.72L90.218 62.34L90.338 59.28C93.018 59.32 95.358 59.9 97.358 61.02C99.358 62.14 100.918 63.68 102.038 65.64C103.158 67.6 103.718 69.9 103.718 72.54C103.718 75.42 103.018 78.02 101.618 80.34C100.218 82.62 98.298 84.42 95.858 85.74C93.418 87.06 90.658 87.72 87.578 87.72Z" fill="white"/>
<defs>
<linearGradient id="paint0_linear_17_2845" x1="-20" y1="23.7988" x2="143.75" y2="108.799" gradientUnits="userSpaceOnUse">
<stop stop-color="#3F37C9"/>
<stop offset="1" stop-color="#4895EF"/>
<stop offset="1" stop-color="#4895EF"/>
</linearGradient>
</defs>
</svg>
