<svg width="125" height="126" viewBox="0 0 125 126" fill="none" xmlns="http://www.w3.org/2000/svg">
<circle cx="62.5" cy="62.5488" r="62.5" fill="url(#paint0_linear_17_2842)"/>
<path d="M42.3732 87.72C39.0932 87.72 36.0332 87.14 33.1932 85.98C30.3532 84.82 27.8732 83.2 25.7532 81.12C23.6332 79.04 21.9732 76.6 20.7732 73.8C19.6132 70.96 19.0332 67.9 19.0332 64.62C19.0332 61.3 19.6132 58.24 20.7732 55.44C21.9332 52.64 23.5732 50.2 25.6932 48.12C27.8132 46.04 30.2932 44.44 33.1332 43.32C35.9732 42.16 39.0532 41.58 42.3732 41.58C45.6932 41.58 48.7732 42.16 51.6132 43.32C54.4532 44.48 56.9332 46.1 59.0532 48.18C61.1732 50.22 62.8132 52.64 63.9732 55.44C65.1732 58.24 65.7732 61.3 65.7732 64.62C65.7732 67.9 65.1732 70.96 63.9732 73.8C62.7732 76.6 61.1132 79.04 58.9932 81.12C56.8732 83.2 54.3932 84.82 51.5532 85.98C48.7532 87.14 45.6932 87.72 42.3732 87.72ZM42.3732 80.28C44.5732 80.28 46.5932 79.9 48.4332 79.14C50.2732 78.34 51.8732 77.24 53.2332 75.84C54.6332 74.44 55.6932 72.78 56.4132 70.86C57.1732 68.94 57.5532 66.86 57.5532 64.62C57.5532 62.38 57.1732 60.32 56.4132 58.44C55.6932 56.52 54.6332 54.86 53.2332 53.46C51.8732 52.02 50.2732 50.92 48.4332 50.16C46.5932 49.4 44.5732 49.02 42.3732 49.02C40.2132 49.02 38.2132 49.4 36.3732 50.16C34.5332 50.92 32.9132 52.02 31.5132 53.46C30.1532 54.86 29.0932 56.52 28.3332 58.44C27.5732 60.32 27.1932 62.38 27.1932 64.62C27.1932 66.86 27.5732 68.94 28.3332 70.86C29.0932 72.78 30.1532 74.44 31.5132 75.84C32.9132 77.24 34.5332 78.34 36.3732 79.14C38.2132 79.9 40.2132 80.28 42.3732 80.28ZM52.6932 92.4L38.7732 69.12H47.2932L61.3932 92.4H52.6932ZM91.389 87V77.16H70.869V70.32L90.909 42.3H99.429V70.32H105.969V77.16H99.429V87H91.389ZM76.869 73.26L75.429 70.32H91.389V48.72L93.489 49.38L76.869 73.26Z" fill="white"/>
<defs>
<linearGradient id="paint0_linear_17_2842" x1="-20" y1="23.7988" x2="143.75" y2="108.799" gradientUnits="userSpaceOnUse">
<stop stop-color="#3F37C9"/>
<stop offset="1" stop-color="#4895EF"/>
<stop offset="1" stop-color="#4895EF"/>
</linearGradient>
</defs>
</svg>
