<svg width="96" height="96" viewBox="0 0 96 96" fill="none" xmlns="http://www.w3.org/2000/svg">
<circle opacity="0.1" cx="48" cy="48" r="48" fill="url(#paint0_linear_17_2512)"/>
<path d="M46.8442 26.0112C46.742 26.022 46.414 26.0596 46.1182 26.0919C43.9079 26.3232 41.461 27.0061 39.4766 27.9526C39.0786 28.1409 38.7237 28.2807 38.6807 28.2646C38.643 28.2538 38.6269 28.2646 38.643 28.2914C38.6591 28.3183 38.5516 28.4044 38.4064 28.4797C38.1052 28.6302 38.0568 28.641 38.1106 28.5496C38.1321 28.5119 38.1267 28.5066 38.0837 28.5281C38.0515 28.5496 38.0353 28.5872 38.0515 28.6141C38.0676 28.641 38.0084 28.7002 37.9224 28.7486C37.7288 28.8454 37.6804 28.8507 37.7342 28.7647C37.7557 28.7271 37.7503 28.7217 37.7073 28.7432C37.675 28.7647 37.6589 28.8023 37.675 28.8292C37.7126 28.8938 37.3954 29.0605 37.3201 29.0175C37.2932 28.9959 37.277 29.0121 37.2824 29.0497C37.2932 29.082 37.2663 29.125 37.2233 29.1411C37.1749 29.1573 37.1641 29.1411 37.191 29.0927C37.2179 29.0497 37.2125 29.0336 37.1856 29.0605C37.1587 29.0874 37.1372 29.1358 37.1372 29.168C37.1372 29.2057 37.0834 29.2326 37.0189 29.2326C36.9544 29.2326 36.8791 29.2595 36.8576 29.281C36.8307 29.3079 36.8468 29.3132 36.8952 29.2863C36.9651 29.2433 36.9651 29.2487 36.9006 29.3294C36.8145 29.4369 36.707 29.4531 36.7661 29.3509C36.7877 29.3132 36.7823 29.3025 36.7554 29.3294C36.7285 29.3563 36.707 29.4047 36.707 29.4315C36.707 29.4638 36.6747 29.5015 36.6317 29.5176C36.5833 29.5337 36.5725 29.5176 36.5994 29.4692C36.6263 29.4262 36.6209 29.41 36.5941 29.4369C36.5672 29.4638 36.5457 29.5122 36.5457 29.5391C36.5457 29.5714 36.5134 29.609 36.4704 29.6251C36.422 29.6413 36.4112 29.6251 36.4381 29.5821C36.465 29.5337 36.4596 29.523 36.4166 29.5499C36.3843 29.5714 36.3682 29.609 36.3843 29.6359C36.4005 29.6628 36.3413 29.7327 36.2553 29.7919C36.0778 29.9209 36.0133 29.9371 36.067 29.8349C36.0885 29.7972 36.0832 29.7865 36.0563 29.8134C36.0294 29.8403 36.0079 29.8887 36.0079 29.9156C36.0079 29.9478 35.9756 29.9855 35.9326 30.0016C35.8896 30.0177 35.8734 30.0016 35.8949 29.964C35.9165 29.9317 35.9218 29.9048 35.9003 29.9048C35.8842 29.9048 35.8465 29.964 35.8196 30.0392C35.7928 30.1145 35.7444 30.1737 35.7121 30.1737C35.6798 30.1737 35.6691 30.1414 35.6906 30.1038C35.7121 30.0715 35.7121 30.0554 35.6906 30.0769C35.6691 30.093 35.6476 30.1307 35.6476 30.1576C35.6476 30.2221 35.5454 30.335 35.4862 30.335C35.4593 30.335 35.454 30.3028 35.4755 30.2651C35.497 30.2275 35.4916 30.2167 35.4647 30.2436C35.4378 30.2705 35.4163 30.3135 35.4163 30.3458C35.4163 30.378 35.3572 30.4426 35.2819 30.491C35.1528 30.5716 35.1474 30.5716 35.2281 30.4695C35.2819 30.3996 35.2872 30.3834 35.2388 30.4103C35.2012 30.4318 35.1474 30.5125 35.1205 30.5824C35.0936 30.6523 35.0452 30.7115 35.013 30.7115C34.9807 30.7115 34.97 30.6792 34.9915 30.6416C35.0184 30.5985 35.0022 30.6039 34.9431 30.6523C34.8893 30.6953 34.8624 30.7384 34.8785 30.7545C34.9162 30.7921 34.7441 30.9804 34.6742 30.9804C34.6473 30.9804 34.658 30.9373 34.6957 30.8836C34.7548 30.8083 34.7495 30.8136 34.6473 30.8943C34.5182 31.0073 34.4913 31.0664 34.5935 31.0019C34.6903 30.9481 34.3676 31.26 34.2332 31.3568C34.1525 31.416 34.1579 31.3945 34.2601 31.2761L34.3945 31.1148L34.2439 31.2439C34.1633 31.3192 34.0987 31.4052 34.0987 31.4375C34.0987 31.5074 33.7653 31.8408 33.6954 31.8408C33.6685 31.8408 33.7062 31.7763 33.7761 31.6902C33.8514 31.6096 33.6094 31.8354 33.249 32.1904C32.8887 32.5453 32.5929 32.8465 32.5929 32.8572C32.5929 32.8734 32.6521 32.825 32.7274 32.755C32.8027 32.6851 32.8618 32.6529 32.8618 32.6798C32.8618 32.7497 32.4585 33.1423 32.4262 33.1046C32.4101 33.0939 32.3241 33.1584 32.238 33.2498C32.152 33.3466 32.1358 33.3789 32.2057 33.3251C32.2703 33.2659 32.3241 33.2444 32.3241 33.2767C32.3241 33.3466 32.0821 33.5725 32.0444 33.5348C32.0337 33.5187 31.9745 33.5617 31.9153 33.6263C31.8347 33.7231 31.8293 33.7338 31.91 33.6747C31.9584 33.637 32.0014 33.6263 32.0014 33.6531C32.0014 33.7231 31.8132 33.8951 31.7755 33.8575C31.7594 33.8414 31.7164 33.8683 31.6733 33.922C31.6249 33.9812 31.6196 33.9973 31.668 33.9704C31.7002 33.9489 31.7325 33.9543 31.7325 33.9812C31.7325 34.0457 31.598 34.1587 31.5604 34.1264C31.5443 34.1103 31.5012 34.1372 31.4582 34.1909C31.4098 34.2501 31.4044 34.2662 31.4528 34.2393C31.5389 34.1909 31.5389 34.2931 31.4528 34.3523C31.4152 34.3738 31.3668 34.3953 31.3453 34.3953C31.3292 34.3953 31.2915 34.4168 31.2646 34.4437C31.2377 34.4706 31.2485 34.476 31.2915 34.4544C31.3776 34.406 31.3776 34.5082 31.2915 34.5674C31.2539 34.5889 31.2055 34.6104 31.184 34.6104C31.1678 34.6104 31.1302 34.6319 31.1033 34.6588C31.0764 34.6857 31.0872 34.6911 31.1302 34.6696C31.1624 34.648 31.1947 34.6534 31.1947 34.6857C31.1947 34.7395 31.0925 34.8255 31.0226 34.8255C31.0065 34.8255 30.9688 34.847 30.942 34.8739C30.9151 34.9008 30.9312 34.9062 30.9742 34.8793C31.0226 34.8524 31.0388 34.8632 31.0226 34.9116C31.0065 34.9546 30.9688 34.9869 30.942 34.9869C30.9097 34.9869 30.8613 35.0084 30.8344 35.0353C30.8075 35.0621 30.8183 35.0675 30.8613 35.046C30.9581 34.9922 30.942 35.0568 30.8129 35.2342C30.7537 35.3203 30.6838 35.3794 30.6569 35.3633C30.63 35.3472 30.5924 35.3633 30.5709 35.3956C30.544 35.4386 30.5547 35.444 30.6031 35.4171C30.6462 35.3902 30.6623 35.4009 30.6462 35.4493C30.63 35.4924 30.5924 35.5246 30.5655 35.5246C30.5332 35.5246 30.4848 35.5461 30.4579 35.573C30.4311 35.5999 30.4472 35.6053 30.4902 35.5784C30.5386 35.5515 30.5547 35.5623 30.5386 35.6107C30.5225 35.6537 30.4848 35.686 30.4579 35.686C30.4257 35.686 30.3773 35.7075 30.3504 35.7344C30.3235 35.7613 30.3396 35.7666 30.3827 35.7397C30.4311 35.7129 30.4472 35.7236 30.4311 35.772C30.4149 35.815 30.3773 35.8473 30.3504 35.8473C30.3181 35.8473 30.2697 35.8688 30.2428 35.8957C30.2159 35.9226 30.2267 35.928 30.2643 35.9065C30.3504 35.8581 30.3504 35.9011 30.2751 36.0409C30.2482 36.1001 30.1998 36.1323 30.1729 36.1162C30.146 36.1001 30.1084 36.1162 30.0869 36.1485C30.06 36.1915 30.0707 36.1969 30.1191 36.17C30.1622 36.1431 30.1783 36.1538 30.1622 36.2022C30.146 36.2453 30.103 36.2722 30.0707 36.2614C30.0331 36.256 30.017 36.2668 30.0277 36.2883C30.0707 36.3582 29.9094 36.6916 29.8556 36.6594C29.8287 36.6378 29.7857 36.654 29.7642 36.6862C29.7427 36.7293 29.7481 36.7346 29.7857 36.7131C29.8718 36.6594 29.8664 36.7078 29.7696 36.9014C29.7212 36.9874 29.662 37.0466 29.6351 37.0304C29.6083 37.0143 29.5706 37.0304 29.5491 37.0627C29.5222 37.1057 29.533 37.1111 29.5814 37.0842C29.6244 37.0573 29.6405 37.0681 29.6244 37.1165C29.6083 37.1595 29.5706 37.1864 29.5383 37.181C29.5061 37.1702 29.4899 37.2025 29.5061 37.2402C29.5437 37.337 29.377 37.6596 29.3125 37.622C29.2802 37.6005 29.2748 37.6274 29.2963 37.6811C29.3232 37.7511 29.3125 37.7618 29.2587 37.7295C29.2103 37.6973 29.1995 37.708 29.2264 37.7511C29.2533 37.7887 29.1404 38.1006 28.9575 38.4824C28.7854 38.8481 28.6295 39.1224 28.608 39.0955C28.5918 39.0632 28.5596 39.0901 28.5434 39.1493C28.5273 39.2138 28.5381 39.2515 28.5649 39.23C28.6295 39.1923 28.6241 39.2192 28.5273 39.4558C28.4789 39.5688 28.4036 39.6925 28.3498 39.7355C28.3014 39.7731 28.2961 39.7893 28.3391 39.7677C28.3982 39.7355 28.409 39.7516 28.3767 39.8323C28.0541 40.6605 27.3764 43.0375 27.3764 43.3494C27.3764 43.4032 27.3388 43.4569 27.2958 43.4785C27.2528 43.4946 27.2151 43.5484 27.2205 43.6021C27.2205 43.6882 27.2259 43.6882 27.2689 43.5914C27.3334 43.4354 27.3334 43.5645 27.2581 44.0109C27.2259 44.226 27.1667 44.4196 27.1237 44.4411C27.086 44.4626 27.0592 44.5486 27.0592 44.6293L27.0645 44.7745L27.1076 44.6132L27.1506 44.4518L27.156 44.6454C27.1613 44.7745 27.1344 44.8552 27.0807 44.8767C27.0376 44.8928 27 44.9681 27 45.0434C27 45.1241 27.0215 45.1725 27.0538 45.151C27.0807 45.1348 27.1076 45.1671 27.1076 45.2262C27.1076 45.2854 27.086 45.3446 27.0592 45.3607C26.9731 45.4145 27.0269 49.4371 27.1237 50.0986C27.4894 52.6638 28.1562 54.9225 29.1081 56.8101C29.221 57.0467 29.3071 57.2726 29.291 57.3156C29.2748 57.3586 29.2856 57.3748 29.3125 57.3586C29.3394 57.3425 29.4254 57.4501 29.5007 57.5953C29.6513 57.8964 29.662 57.9448 29.5706 57.891C29.533 57.8695 29.5276 57.8749 29.5491 57.9179C29.5706 57.9502 29.6083 57.9663 29.6351 57.9502C29.662 57.9341 29.7212 57.9932 29.7696 58.0793C29.8664 58.2729 29.8718 58.3213 29.7857 58.2675C29.7481 58.246 29.7427 58.2514 29.7642 58.2944C29.7857 58.3267 29.8234 58.3428 29.8503 58.3267C29.9148 58.289 30.0815 58.6063 30.0385 58.6816C30.017 58.7085 30.0331 58.7246 30.0707 58.7192C30.103 58.7085 30.146 58.7354 30.1622 58.7784C30.1783 58.8268 30.1622 58.8375 30.1138 58.8107C30.0707 58.7838 30.0546 58.7891 30.0815 58.816C30.1084 58.8429 30.1568 58.8644 30.1891 58.8644C30.2267 58.8644 30.2536 58.9182 30.2536 58.9774C30.259 59.0419 30.302 59.1495 30.3504 59.2194C30.4042 59.2893 30.4311 59.3108 30.4095 59.2678C30.3719 59.1979 30.3827 59.1979 30.4579 59.2624C30.5655 59.3484 30.5816 59.456 30.4848 59.3968C30.4418 59.3753 30.4311 59.3807 30.4579 59.4076C30.4848 59.4345 30.5332 59.456 30.5601 59.456C30.5924 59.456 30.63 59.4883 30.6462 59.5313C30.6623 59.5797 30.6462 59.5904 30.6031 59.5636C30.5547 59.5367 30.544 59.542 30.5709 59.5851C30.5924 59.6173 30.63 59.6335 30.6569 59.6173C30.6838 59.6012 30.7537 59.6604 30.8129 59.7464C30.942 59.9239 30.9581 59.9884 30.8613 59.9346C30.8183 59.9131 30.8075 59.9185 30.8344 59.9454C30.8613 59.9723 30.9097 59.9938 30.9366 59.9938C30.9688 59.9938 31.0065 60.0261 31.0226 60.0691C31.0388 60.1175 31.0226 60.1282 30.9742 60.1013C30.9312 60.0745 30.9151 60.0798 30.942 60.1067C30.9688 60.1336 31.0065 60.1551 31.0226 60.1551C31.0441 60.1551 31.0925 60.1766 31.1302 60.1981C31.2162 60.2573 31.2162 60.3595 31.1302 60.3111C31.0872 60.2896 31.0764 60.2949 31.1033 60.3218C31.1302 60.3487 31.1678 60.3702 31.184 60.3702C31.2539 60.3702 31.356 60.4563 31.356 60.5101C31.356 60.5423 31.3238 60.5477 31.2915 60.5262C31.2485 60.5047 31.2377 60.5101 31.2646 60.5369C31.2915 60.5638 31.3345 60.5853 31.3668 60.5853C31.3991 60.5853 31.4582 60.6445 31.5012 60.7198C31.5765 60.8435 31.5765 60.8489 31.4959 60.7521C31.4475 60.6929 31.4098 60.6714 31.4098 60.7037C31.4098 60.7359 31.4475 60.7897 31.4905 60.8273C31.5335 60.865 31.5712 60.8757 31.5712 60.8542C31.5712 60.8327 31.6088 60.8435 31.6518 60.8811C31.7486 60.9618 31.7594 61.064 31.6626 61.0102C31.6196 60.9833 31.6249 60.9994 31.6733 61.0586C31.7164 61.1124 31.7594 61.1393 31.7755 61.1231C31.8132 61.0855 32.0014 61.2576 32.0014 61.3275C32.0014 61.3544 31.9584 61.3436 31.9046 61.306C31.8293 61.2468 31.8347 61.2522 31.9153 61.3544C32.0283 61.4834 32.0874 61.5103 32.0229 61.4028C31.996 61.3705 32.0552 61.4082 32.152 61.4996C32.3348 61.6663 32.394 61.8061 32.2326 61.6824C32.1789 61.6448 32.195 61.677 32.2649 61.7577C32.4101 61.919 32.4854 61.9567 32.3725 61.8061C32.3294 61.7577 32.437 61.8491 32.6091 62.0105C32.9318 62.317 33.0447 62.5214 32.7435 62.2525C32.6467 62.1611 32.7005 62.231 32.8618 62.4031C33.1738 62.7311 33.3082 62.8279 33.0501 62.5375C32.9586 62.4407 33.0554 62.516 33.2544 62.7096C33.6362 63.0753 33.7546 63.2366 33.4104 62.9247C33.3028 62.8225 33.3566 62.8871 33.5341 63.0753C33.7115 63.2581 33.8621 63.4087 33.8783 63.4087C33.8944 63.4087 33.8352 63.3334 33.7492 63.2474C33.6631 63.156 33.6201 63.086 33.647 63.086C33.7115 63.086 34.0987 63.5001 34.0987 63.5647C34.0987 63.5862 34.1633 63.6615 34.2439 63.7368L34.3945 63.8658L34.2601 63.7045L34.1256 63.5485L34.3139 63.6884C34.416 63.769 34.4967 63.8551 34.4913 63.882C34.4859 63.9088 34.5451 63.9895 34.6258 64.0594L34.771 64.1885L34.6634 64.0594C34.5935 63.9734 34.5827 63.9465 34.6365 63.9734C34.7817 64.054 34.9538 64.2315 34.9323 64.2745C34.9162 64.2961 34.9323 64.3337 34.9646 64.3552C35.0076 64.3767 35.013 64.3713 34.9915 64.3337C34.97 64.2961 34.9753 64.2692 35.0022 64.2692C35.0668 64.2692 35.1797 64.4036 35.1474 64.4413C35.1313 64.4574 35.1582 64.5004 35.212 64.5434C35.2711 64.5918 35.2872 64.5972 35.2604 64.5488C35.2388 64.5165 35.2442 64.4843 35.2765 64.4843C35.3303 64.4843 35.4163 64.5865 35.4163 64.6564C35.4163 64.6725 35.4378 64.7101 35.4647 64.737C35.4916 64.7639 35.497 64.7532 35.4755 64.7101C35.454 64.6779 35.4593 64.6456 35.4916 64.6456C35.5454 64.6456 35.6314 64.7478 35.6314 64.8177C35.6314 64.8338 35.6529 64.8715 35.6798 64.8984C35.7067 64.9253 35.7121 64.9145 35.6906 64.8769C35.6691 64.8392 35.6744 64.8069 35.7067 64.8069C35.7605 64.8069 35.8465 64.9091 35.8465 64.979C35.8465 64.9952 35.8681 65.0328 35.8949 65.0597C35.9218 65.0866 35.9272 65.0705 35.9003 65.0274C35.8734 64.979 35.8842 64.9629 35.9326 64.979C35.9756 64.9952 36.0079 65.0328 36.0079 65.0597C36.0079 65.092 36.0294 65.1404 36.0563 65.1673C36.0832 65.1941 36.0885 65.1834 36.067 65.1404C36.0133 65.0436 36.0778 65.0597 36.2553 65.1888C36.3413 65.2479 36.4005 65.3178 36.3843 65.3447C36.3682 65.3716 36.3843 65.4093 36.4166 65.4308C36.4596 65.4577 36.465 65.4469 36.4381 65.3985C36.4112 65.3555 36.422 65.3394 36.4704 65.3555C36.5134 65.3716 36.5457 65.4093 36.5457 65.4362C36.5457 65.4684 36.5672 65.5168 36.5941 65.5437C36.6209 65.5706 36.6263 65.5545 36.5994 65.5114C36.5725 65.463 36.5833 65.4469 36.6317 65.463C36.6747 65.4792 36.707 65.5168 36.707 65.5437C36.707 65.576 36.7285 65.6244 36.7554 65.6513C36.7823 65.6782 36.7877 65.662 36.7608 65.619C36.7339 65.5706 36.7446 65.5545 36.793 65.5706C36.8361 65.5867 36.8629 65.6244 36.8576 65.6566C36.8468 65.6943 36.8791 65.705 36.9329 65.6835C36.9866 65.662 37.0082 65.6728 36.9813 65.7104C36.9651 65.7427 36.9705 65.7803 37.0028 65.8018C37.0297 65.818 37.0566 65.8072 37.0566 65.775C37.0566 65.7427 37.0834 65.7319 37.1103 65.7481C37.1426 65.7696 37.1534 65.8018 37.1372 65.8287C37.1211 65.8556 37.1372 65.8933 37.1695 65.9148C37.2125 65.9363 37.2179 65.9309 37.1964 65.8933C37.1372 65.7965 37.2018 65.8126 37.4653 65.9686C37.5943 66.0438 37.6911 66.1299 37.675 66.1514C37.6589 66.1783 37.675 66.2159 37.7073 66.2375C37.7503 66.259 37.7557 66.2536 37.7342 66.2159C37.6804 66.1299 37.7288 66.1353 37.9224 66.2321C38.0084 66.2805 38.0676 66.3396 38.0515 66.3665C38.0353 66.3934 38.0515 66.4311 38.0837 66.4526C38.1267 66.4741 38.1321 66.4687 38.1106 66.4311C38.0622 66.3504 38.0945 66.3504 38.2666 66.4311C38.3419 66.4633 38.401 66.5279 38.4064 66.5763C38.4064 66.63 38.4171 66.6354 38.4387 66.5978C38.4548 66.5494 38.6376 66.6193 39.0087 66.8075C39.3099 66.9581 39.7508 67.1624 39.9821 67.2646C40.2187 67.3614 40.4446 67.4851 40.4822 67.5389C40.5253 67.5873 40.5414 67.598 40.5199 67.555C40.4984 67.5174 40.5037 67.4905 40.536 67.5012C40.5629 67.512 40.7834 67.5927 41.0254 67.6841C41.2674 67.7701 41.4664 67.8723 41.4664 67.91C41.4664 67.9476 41.4933 67.9799 41.5255 67.9799C41.5524 67.9799 41.5632 67.953 41.5417 67.9153C41.5148 67.8723 41.5309 67.8669 41.5901 67.8884C41.6385 67.9046 41.8858 67.9852 42.1332 68.0605C42.3806 68.1358 42.6172 68.2326 42.6495 68.2756C42.7248 68.3671 42.8377 68.3886 42.7839 68.3025C42.7624 68.2649 42.7947 68.2541 42.8754 68.2756C43.5745 68.4531 43.752 68.5123 43.7358 68.5661C43.7304 68.5983 43.7627 68.6252 43.8057 68.6252C43.8488 68.6252 43.8864 68.5983 43.8864 68.5714C43.8864 68.4961 44.1714 68.5714 44.2252 68.6629C44.2467 68.7005 44.3113 68.7328 44.3597 68.7328C44.4403 68.7328 44.4403 68.722 44.3704 68.6736C44.3059 68.6306 44.3166 68.6252 44.4242 68.6467C44.4995 68.6629 44.6124 68.679 44.6823 68.679C44.7522 68.679 44.8006 68.7113 44.8006 68.7597C44.8006 68.8081 44.849 68.8403 44.9243 68.8349C45.0373 68.8349 45.0373 68.8296 44.9351 68.7812C44.8598 68.7489 44.9243 68.7435 45.1233 68.765C45.29 68.7865 45.4406 68.8296 45.4621 68.8726C45.4836 68.9156 45.5643 68.9479 45.6396 68.9479C45.7149 68.9479 45.7579 68.9264 45.7418 68.8941C45.7256 68.8618 45.7418 68.8403 45.7848 68.8403C45.8278 68.8403 45.8762 68.878 45.8977 68.921C45.9354 69.0178 46.1505 69.0285 46.2419 68.9371C46.2903 68.8887 46.3226 68.8833 46.3495 68.9264C46.3925 68.9909 50.2376 68.9963 50.77 68.9317C50.9636 68.9102 51.0228 68.9102 50.9314 68.9425L50.7969 68.9909L50.9421 68.9963C51.0228 69.0017 51.1088 68.9694 51.1303 68.9317C51.1787 68.8511 51.9693 68.7274 51.9962 68.7973C52.0069 68.8188 52.0661 68.8403 52.1306 68.8349C52.2436 68.8349 52.2436 68.8296 52.1468 68.7919C52.05 68.7543 52.05 68.7489 52.1736 68.7166C52.2436 68.6951 52.3404 68.679 52.3834 68.679C52.4533 68.679 52.4533 68.6844 52.3834 68.7328C52.3135 68.7758 52.3188 68.7865 52.3995 68.7865C52.4533 68.7865 52.5071 68.7489 52.5232 68.7059C52.5447 68.6629 52.6093 68.6252 52.6738 68.6306C52.7813 68.6306 52.7813 68.636 52.6792 68.679C52.5824 68.722 52.5824 68.7274 52.6684 68.7274C52.7222 68.7328 52.776 68.6951 52.7921 68.6521C52.8136 68.6091 52.8674 68.5714 52.9158 68.5714C52.9911 68.5714 52.9911 68.5822 52.9212 68.6252C52.8513 68.6682 52.8513 68.679 52.9265 68.679C52.9749 68.679 53.0287 68.6413 53.0502 68.5983C53.0664 68.5553 53.104 68.5177 53.1363 68.5177C53.1685 68.5177 53.1793 68.5445 53.1632 68.5714C53.147 68.6037 53.1685 68.6252 53.2169 68.6252C53.2653 68.6252 53.2922 68.6037 53.2707 68.5768C53.2331 68.5123 53.2761 68.4854 53.5073 68.437C53.631 68.4101 53.6741 68.4155 53.6526 68.4585C53.631 68.4908 53.6418 68.5177 53.6687 68.5177C53.701 68.5177 53.7278 68.4854 53.7278 68.4424C53.7278 68.3993 53.8085 68.3509 53.9214 68.3348C54.0236 68.3133 54.1527 68.281 54.1957 68.2649C54.2549 68.2434 54.271 68.2541 54.2441 68.2918C54.2226 68.3294 54.228 68.3563 54.2602 68.3563C54.2871 68.3563 54.3194 68.3294 54.3302 68.2972C54.3409 68.2649 54.7335 68.1089 55.2067 67.953C55.68 67.797 56.1156 67.6518 56.1694 67.6249C56.25 67.5927 56.2662 67.6034 56.2339 67.6626C56.2124 67.7056 56.2285 67.6948 56.2716 67.6464C56.3791 67.512 56.6157 67.4313 56.6534 67.512C56.6641 67.5496 56.6803 67.5335 56.6803 67.4797C56.6856 67.4313 56.7125 67.3883 56.7448 67.3883C56.7717 67.3883 56.7878 67.4098 56.7717 67.4367C56.7502 67.4636 56.7878 67.4744 56.8524 67.4582C56.9223 67.4367 56.9384 67.4152 56.9061 67.3883C56.8685 67.3668 56.8954 67.3292 56.9761 67.2915C57.0782 67.2485 57.1159 67.2485 57.1374 67.2969C57.1535 67.3399 57.1643 67.3345 57.1697 67.2808C57.175 67.2323 57.5138 67.0387 58.0086 66.7967C58.9766 66.3289 58.9712 66.3289 58.9175 66.4203C58.8906 66.4687 58.8959 66.4795 58.939 66.4526C58.9712 66.4311 58.9874 66.3934 58.9712 66.3665C58.9551 66.3396 59.0143 66.2805 59.1003 66.2321C59.2939 66.1353 59.3423 66.1299 59.2885 66.2159C59.267 66.2536 59.2724 66.259 59.3154 66.2375C59.3477 66.2159 59.3638 66.1783 59.3477 66.1514C59.3315 66.1299 59.4283 66.0438 59.5574 65.9686C59.8263 65.8126 59.8855 65.7965 59.8263 65.8933C59.8048 65.9363 59.8102 65.947 59.8371 65.9202C59.8639 65.8933 59.8908 65.8502 59.8908 65.8234C59.907 65.705 59.9177 65.6997 59.9661 65.775C60.0092 65.8449 60.0199 65.8395 60.0199 65.7588C60.0199 65.7104 60.0468 65.6674 60.0791 65.6674C60.106 65.6674 60.1167 65.6997 60.0952 65.7373C60.0737 65.775 60.0791 65.7857 60.106 65.7588C60.1328 65.7319 60.1544 65.6835 60.1544 65.6513C60.1544 65.6244 60.1866 65.5867 60.2296 65.5706C60.278 65.5545 60.2888 65.5706 60.2619 65.619C60.235 65.662 60.2404 65.6782 60.2673 65.6513C60.2942 65.6244 60.3157 65.576 60.3157 65.5437C60.3157 65.5168 60.348 65.4792 60.391 65.463C60.4394 65.4469 60.4501 65.463 60.4232 65.5114C60.3964 65.5545 60.4017 65.5706 60.4286 65.5437C60.4555 65.5168 60.477 65.4684 60.477 65.4362C60.477 65.4093 60.5093 65.3716 60.5523 65.3555C60.6007 65.3394 60.6115 65.3555 60.5846 65.3985C60.5577 65.4469 60.5631 65.4577 60.6061 65.4308C60.6384 65.4093 60.6545 65.3716 60.6384 65.3447C60.6222 65.3178 60.6814 65.2479 60.7674 65.1888C60.9449 65.0597 61.0094 65.0436 60.9557 65.1404C60.9341 65.1834 60.9395 65.1941 60.9664 65.1673C60.9933 65.1404 61.0148 65.092 61.0148 65.0597C61.0148 65.0328 61.0471 64.9952 61.0901 64.979C61.1385 64.9629 61.1493 64.979 61.1224 65.0274C61.0955 65.0705 61.1009 65.0866 61.1277 65.0597C61.1546 65.0328 61.1761 64.9952 61.1761 64.979C61.1761 64.9575 61.1977 64.9091 61.2192 64.8715C61.2783 64.7854 61.3805 64.7854 61.3321 64.8769C61.3106 64.9145 61.316 64.9253 61.3429 64.8984C61.3697 64.8715 61.3913 64.8338 61.3913 64.8177C61.3913 64.7962 61.4128 64.7478 61.4343 64.7155C61.4934 64.6241 61.5956 64.6241 61.5472 64.7155C61.5257 64.7532 61.5311 64.7639 61.558 64.737C61.5849 64.7101 61.6064 64.6725 61.6064 64.6564C61.6064 64.6349 61.6279 64.5865 61.6494 64.5542C61.7085 64.4628 61.8107 64.4628 61.7623 64.5488C61.7354 64.5972 61.7516 64.5918 61.8107 64.5434C61.8645 64.5004 61.8914 64.4574 61.8753 64.4413C61.843 64.4036 61.9559 64.2692 62.0205 64.2692C62.0474 64.2692 62.0527 64.3014 62.0312 64.3337C62.0043 64.3821 62.0205 64.3767 62.0796 64.3283C62.1334 64.2853 62.1603 64.2423 62.1442 64.2261C62.1065 64.1885 62.2786 64.0003 62.3485 64.0003C62.3754 64.0003 62.3646 64.0433 62.327 64.0917C62.2678 64.1724 62.2786 64.167 62.3754 64.0863C62.4399 64.0272 62.483 63.968 62.4668 63.9572C62.4292 63.9196 62.655 63.6776 62.725 63.6776C62.7518 63.6776 62.7465 63.7152 62.7088 63.7583C62.5798 63.9088 62.6873 63.8389 62.8486 63.6668C62.9777 63.5216 62.9831 63.5109 62.8702 63.5969L62.7357 63.7045L62.8648 63.5593C62.9347 63.4786 63.0207 63.4248 63.053 63.4464C63.0853 63.4625 63.096 63.4571 63.0691 63.4356C63.0261 63.3872 63.2305 63.1398 63.3165 63.1398C63.3488 63.1398 63.3165 63.199 63.2466 63.2743C63.1767 63.3496 63.1283 63.4087 63.1444 63.4087C63.1552 63.4087 63.4563 63.1129 63.8113 62.7526C64.1662 62.3923 64.3921 62.1503 64.3114 62.2256C64.2254 62.2955 64.1608 62.3278 64.1608 62.2955C64.1608 62.2095 64.4082 62.0051 64.4566 62.0481C64.4781 62.075 64.4835 62.0643 64.4674 62.032C64.4459 61.9997 64.4996 61.9137 64.5803 61.8438C64.7148 61.7254 64.7148 61.7254 64.6233 61.833C64.4674 62.0212 64.548 61.9782 64.7309 61.7846C64.8169 61.6878 64.8438 61.6448 64.7954 61.6824C64.7416 61.7201 64.6986 61.7308 64.6986 61.7039C64.6986 61.634 64.8868 61.4619 64.9245 61.4996C64.9352 61.5157 65.0052 61.4619 65.0805 61.3813C65.1504 61.3006 65.1665 61.2683 65.1181 61.306C65.0643 61.3436 65.0213 61.3544 65.0213 61.3275C65.0213 61.2576 65.2095 61.0855 65.2472 61.1231C65.2633 61.1393 65.3063 61.1124 65.3493 61.0586C65.3977 60.9994 65.4031 60.9833 65.3601 61.0102C65.3225 61.0317 65.2902 61.0263 65.2902 60.9994C65.2902 60.9349 65.4246 60.822 65.4623 60.8542C65.4784 60.8704 65.5214 60.8435 65.5645 60.7897C65.6129 60.7305 65.6182 60.7144 65.5752 60.7413C65.5376 60.7628 65.5053 60.7574 65.5053 60.7252C65.5053 60.6714 65.6075 60.5853 65.6774 60.5853C65.6935 60.5853 65.7312 60.5638 65.7581 60.5369C65.7849 60.5101 65.7742 60.5047 65.7365 60.5262C65.6344 60.5853 65.6505 60.4778 65.7581 60.3917C65.8172 60.338 65.8333 60.338 65.8065 60.3864C65.7473 60.4832 65.8011 60.467 65.8871 60.3595C65.9409 60.3003 65.9409 60.2842 65.8979 60.3111C65.8065 60.3595 65.8065 60.2573 65.8979 60.1981C65.9301 60.1766 65.9785 60.1551 66.0001 60.1551C66.0162 60.1551 66.0538 60.1336 66.0807 60.1067C66.1076 60.0798 66.0915 60.0745 66.0485 60.1013C66.0001 60.1282 65.9839 60.1175 66.0001 60.0691C66.0162 60.0261 66.0538 59.9938 66.0861 59.9938C66.113 59.9938 66.1614 59.9723 66.1883 59.9454C66.2152 59.9185 66.2044 59.9131 66.1668 59.9346C66.0646 59.9884 66.0807 59.9239 66.2098 59.7464C66.269 59.6604 66.3389 59.6012 66.3658 59.6173C66.3926 59.6335 66.4303 59.6173 66.4518 59.5851C66.4787 59.542 66.4679 59.5367 66.4195 59.5636C66.3765 59.5904 66.3604 59.5797 66.3765 59.5313C66.3926 59.4883 66.4303 59.456 66.4626 59.456C66.4894 59.456 66.5378 59.4345 66.5647 59.4076C66.5916 59.3807 66.5755 59.3753 66.5325 59.4022C66.4841 59.4291 66.4679 59.4184 66.4841 59.37C66.5002 59.3269 66.5378 59.2947 66.5701 59.2947C66.597 59.2947 66.6454 59.2732 66.6723 59.2463C66.6992 59.2194 66.6884 59.214 66.6508 59.2355C66.554 59.2893 66.5647 59.2516 66.6938 59.0312C66.7583 58.9236 66.8282 58.8483 66.8498 58.8644C66.8766 58.8806 66.9143 58.8644 66.9358 58.8322C66.9573 58.7891 66.9519 58.7838 66.9143 58.8053C66.8175 58.8644 66.8336 58.7999 66.9896 58.5364C67.0649 58.4073 67.1509 58.3105 67.1724 58.3267C67.1993 58.3428 67.237 58.3267 67.2585 58.2944C67.28 58.2514 67.2746 58.246 67.237 58.2675C67.1509 58.3213 67.1563 58.2729 67.2531 58.0793C67.3015 57.9932 67.3607 57.9341 67.3875 57.9502C67.4144 57.9663 67.4521 57.9502 67.4736 57.9179C67.4951 57.8749 67.4897 57.8695 67.4521 57.891C67.4144 57.9126 67.3875 57.9179 67.3875 57.8964C67.3875 57.8803 67.5543 57.5307 67.7586 57.122C68.9095 54.8311 69.5925 52.5347 69.9259 49.8566C70.0227 49.0983 70.0227 45.8877 69.9259 45.1241C69.6247 42.6879 68.9901 40.4346 68.049 38.4556C67.8608 38.0576 67.721 37.7027 67.7371 37.6596C67.7479 37.622 67.7371 37.6059 67.7102 37.622C67.6833 37.6381 67.5973 37.5306 67.522 37.3854C67.3714 37.0842 67.3607 37.0358 67.4521 37.0896C67.4897 37.1111 67.4951 37.1057 67.4736 37.0627C67.4521 37.0304 67.4144 37.0143 67.3875 37.0304C67.3607 37.0466 67.3015 36.9874 67.2531 36.9014C67.1563 36.7078 67.1509 36.6594 67.237 36.7131C67.2746 36.7346 67.28 36.7293 67.2585 36.6862C67.237 36.654 67.1993 36.6378 67.1724 36.654C67.1079 36.6916 66.9412 36.3743 66.9842 36.299C67.0057 36.2722 66.9896 36.256 66.9519 36.2614C66.9197 36.2722 66.8766 36.2453 66.8605 36.2022C66.8444 36.1538 66.8605 36.1431 66.9035 36.17C66.9519 36.1969 66.9627 36.1915 66.9358 36.1485C66.9143 36.1162 66.8766 36.1001 66.8498 36.1162C66.8229 36.1323 66.7745 36.1001 66.7476 36.0409C66.6723 35.9011 66.6723 35.8581 66.7583 35.9065C66.796 35.928 66.8067 35.9226 66.7798 35.8957C66.753 35.8688 66.7046 35.8473 66.6723 35.8473C66.6454 35.8473 66.6078 35.815 66.5916 35.772C66.5755 35.7236 66.5916 35.7129 66.64 35.7397C66.683 35.7666 66.6992 35.7613 66.6723 35.7344C66.6454 35.7075 66.597 35.686 66.5647 35.686C66.5378 35.686 66.5002 35.6537 66.4841 35.6107C66.4679 35.5623 66.4841 35.5515 66.5325 35.5784C66.5755 35.6053 66.5916 35.5999 66.5647 35.573C66.5378 35.5461 66.4894 35.5246 66.4572 35.5246C66.4303 35.5246 66.3926 35.4924 66.3765 35.4493C66.3604 35.4009 66.3765 35.3902 66.4195 35.4171C66.4679 35.444 66.4787 35.4386 66.4518 35.3956C66.4303 35.3633 66.3926 35.3472 66.3658 35.3633C66.3389 35.3794 66.269 35.3203 66.2098 35.2342C66.0807 35.0568 66.0646 34.9922 66.1668 35.046C66.2044 35.0675 66.2152 35.0621 66.1883 35.0353C66.1614 35.0084 66.113 34.9869 66.0807 34.9869C66.0538 34.9869 66.0162 34.9546 66.0001 34.9116C65.9839 34.8632 66.0001 34.8524 66.0485 34.8793C66.0915 34.9062 66.1076 34.9008 66.0807 34.8739C66.0538 34.847 66.0162 34.8255 66.0001 34.8255C65.9301 34.8255 65.828 34.7395 65.828 34.6857C65.828 34.6534 65.8602 34.648 65.8979 34.6696C65.9355 34.6911 65.9463 34.6857 65.9194 34.6588C65.8925 34.6319 65.8549 34.6104 65.8387 34.6104C65.7688 34.6104 65.6666 34.5244 65.6666 34.4706C65.6666 34.4383 65.6989 34.4329 65.7365 34.4544C65.7742 34.476 65.7849 34.4706 65.7581 34.4437C65.7312 34.4168 65.6935 34.3953 65.6774 34.3953C65.6075 34.3953 65.5053 34.3092 65.5053 34.2555C65.5053 34.2232 65.5376 34.2178 65.5752 34.2393C65.6182 34.2662 65.6129 34.2501 65.5645 34.1909C65.5214 34.1372 65.4784 34.1103 65.4623 34.1264C65.4246 34.1587 65.2902 34.0457 65.2902 33.9812C65.2902 33.9543 65.3225 33.9489 65.3601 33.9704C65.4031 33.9973 65.3977 33.9812 65.3493 33.922C65.3063 33.8683 65.2633 33.8414 65.2472 33.8575C65.2095 33.8951 65.0213 33.7231 65.0213 33.6531C65.0213 33.6263 65.0643 33.637 65.1181 33.6747C65.1934 33.7338 65.188 33.7231 65.1073 33.6263C65.0482 33.5617 64.989 33.5187 64.9783 33.5348C64.9406 33.5725 64.6986 33.3466 64.6986 33.2767C64.6986 33.2444 64.7524 33.2659 64.8223 33.3251C64.8868 33.3789 64.8707 33.3466 64.7847 33.2498C64.6986 33.1584 64.6126 33.0939 64.5964 33.1046C64.5642 33.1423 64.1608 32.7497 64.1608 32.6798C64.1608 32.6529 64.22 32.6851 64.2953 32.755C64.3706 32.825 64.4297 32.8734 64.4297 32.8572C64.4297 32.8465 64.134 32.5453 63.7736 32.1904C63.4133 31.8354 63.1713 31.6096 63.2466 31.6902C63.3165 31.7763 63.3488 31.8408 63.3219 31.8408C63.252 31.8408 62.8594 31.4375 62.897 31.4052C62.9078 31.3891 62.8433 31.303 62.7518 31.217C62.655 31.1309 62.6228 31.1148 62.6766 31.1793C62.7357 31.2493 62.7572 31.303 62.725 31.303C62.655 31.303 62.4292 31.061 62.4668 31.0234C62.483 31.0126 62.4399 30.9535 62.3754 30.8943C62.2786 30.8136 62.2678 30.8083 62.327 30.8836C62.3646 30.9373 62.3754 30.9804 62.3485 30.9804C62.2786 30.9804 62.1065 30.7921 62.1442 30.7545C62.1603 30.7384 62.1334 30.6953 62.0796 30.6523C62.0205 30.6039 62.0043 30.5985 62.0312 30.6416C62.0527 30.6792 62.0474 30.7115 62.0205 30.7115C61.9559 30.7115 61.843 30.577 61.8753 30.5394C61.8914 30.5232 61.8645 30.4802 61.8107 30.4372C61.7516 30.3888 61.7354 30.3834 61.7623 30.4264C61.7838 30.4641 61.7785 30.4964 61.7462 30.4964C61.6924 30.4964 61.6064 30.3942 61.6064 30.3243C61.6064 30.3081 61.5849 30.2705 61.558 30.2436C61.5311 30.2167 61.5257 30.2275 61.5472 30.2651C61.5687 30.3028 61.5633 30.335 61.5311 30.335C61.4773 30.335 61.3913 30.2328 61.3913 30.1629C61.3913 30.1468 61.3697 30.1092 61.3429 30.0823C61.316 30.0554 61.3106 30.0661 61.3321 30.1038C61.3536 30.1414 61.3482 30.1737 61.316 30.1737C61.2622 30.1737 61.1761 30.0715 61.1761 30.0016C61.1761 29.9855 61.1546 29.9478 61.1277 29.9209C61.1009 29.894 61.0955 29.9102 61.1224 29.9532C61.1493 30.0016 61.1385 30.0177 61.0901 30.0016C61.0471 29.9855 61.0148 29.9478 61.0148 29.9209C61.0148 29.8887 60.9933 29.8403 60.9664 29.8134C60.9395 29.7865 60.9341 29.7972 60.9557 29.8349C61.0094 29.9371 60.9449 29.9209 60.7674 29.7919C60.6814 29.7327 60.6222 29.6628 60.6384 29.6359C60.6545 29.609 60.6384 29.5714 60.6061 29.5499C60.5631 29.523 60.5577 29.5337 60.5846 29.5821C60.6115 29.6251 60.6007 29.6413 60.5523 29.6251C60.5093 29.609 60.477 29.5714 60.477 29.5445C60.477 29.5122 60.4555 29.4638 60.4286 29.4369C60.4017 29.41 60.3964 29.4262 60.4232 29.4692C60.4501 29.5176 60.4394 29.5337 60.391 29.5176C60.348 29.5015 60.3157 29.4638 60.3157 29.4369C60.3157 29.4047 60.2942 29.3563 60.2673 29.3294C60.2404 29.3025 60.235 29.3186 60.2619 29.3616C60.2888 29.41 60.278 29.4262 60.2296 29.41C60.1866 29.3939 60.1544 29.3563 60.1544 29.3294C60.1544 29.2971 60.1328 29.2487 60.106 29.2218C60.0791 29.1949 60.0737 29.2057 60.0952 29.2433C60.1436 29.3294 60.1006 29.3294 59.9608 29.2541C59.9016 29.2272 59.8693 29.1788 59.8855 29.1519C59.9016 29.125 59.8855 29.0874 59.8532 29.0659C59.8102 29.039 59.8048 29.0497 59.8317 29.0981C59.8586 29.1411 59.8478 29.1573 59.7994 29.1411C59.7564 29.125 59.7241 29.0874 59.7241 29.0605C59.7241 29.0282 59.7026 28.9798 59.6757 28.9529C59.6488 28.926 59.6435 28.9368 59.665 28.9744C59.7134 29.0659 59.6703 29.0605 59.4767 28.9637C59.3907 28.9153 59.3315 28.8561 59.3477 28.8292C59.3638 28.8023 59.3477 28.7647 59.3154 28.7432C59.2724 28.7217 59.267 28.7271 59.2885 28.7647C59.3423 28.8507 59.2939 28.8454 59.1003 28.7486C59.0143 28.7002 58.9551 28.641 58.9712 28.6141C58.9874 28.5872 58.9712 28.5496 58.939 28.5281C58.8959 28.5066 58.8906 28.5119 58.9121 28.5496C58.9659 28.641 58.9175 28.6302 58.6163 28.4797C58.4711 28.4044 58.3635 28.3183 58.3797 28.2914C58.4012 28.2592 58.3743 28.2538 58.3205 28.2753C58.256 28.2968 58.2398 28.2914 58.2667 28.2484C58.2936 28.2054 58.2721 28.1946 58.213 28.2215C58.1484 28.243 58.1323 28.2377 58.1592 28.1946C58.1807 28.1516 58.1699 28.1409 58.1215 28.1624C58.0785 28.1785 57.8526 28.0978 57.6214 27.9795C56.2931 27.3127 54.0882 26.6082 52.3726 26.3016C51.0282 26.0596 50.5657 26.022 48.7802 26.0059C47.8176 25.9951 46.9464 26.0005 46.8442 26.0112ZM33.2921 32.2442C33.0716 32.4646 32.878 32.6475 32.8672 32.6475C32.8511 32.6475 33.0178 32.4646 33.2383 32.2442C33.4588 32.0237 33.6524 31.8408 33.6631 31.8408C33.6793 31.8408 33.5126 32.0237 33.2921 32.2442ZM63.7844 32.2549L64.1877 32.6744L63.7736 32.271C63.3864 31.9 63.3273 31.8408 63.3703 31.8408C63.3757 31.8408 63.5639 32.029 63.7844 32.2549ZM58.4173 34.6749C59.0627 34.9815 59.4983 35.5085 59.6757 36.1969C59.993 37.4338 59.1272 38.7191 57.8311 38.9449C56.6964 39.1439 55.5133 38.305 55.2767 37.138C55.239 36.9498 55.1852 36.8368 55.1315 36.8207C54.8572 36.7346 50.6463 35.8688 50.6248 35.8957C50.5979 35.9226 49.2105 42.3599 49.2105 42.4674C49.2105 42.5104 49.3772 42.5427 49.6568 42.5696C51.4261 42.7094 52.9534 43.0321 54.4538 43.586C55.1852 43.8603 56.5082 44.5164 57.0513 44.8767C57.2987 45.0434 57.5085 45.1778 57.5246 45.1778C57.5407 45.1778 57.6752 45.081 57.8311 44.9627C59.5251 43.6882 61.9882 44.4518 62.6873 46.4632C63.1606 47.8184 62.6174 49.3833 61.3966 50.1846L61.0632 50.4051L61.1062 50.7869C61.2245 51.798 60.9503 53.1639 60.4232 54.218C59.9554 55.1484 59.0196 56.2723 58.0839 57.0252C56.1425 58.5955 53.4321 59.6335 50.3936 59.9723C49.5224 60.0691 47.4196 60.0583 46.5431 59.9508C44.5801 59.7088 42.9507 59.2463 41.3857 58.488C40.1596 57.8911 39.2507 57.2672 38.3526 56.396C36.7124 54.8042 35.8896 52.8897 36.0079 50.9483L36.0401 50.3459L35.8304 50.2384C35.2066 49.9211 34.5774 49.1574 34.3569 48.4422C34.1848 47.899 34.1848 47.0816 34.3569 46.5331C34.5128 46.0329 34.9484 45.3876 35.3518 45.0649C36.4757 44.1614 37.9385 44.0915 39.1163 44.8928C39.3475 45.0488 39.5411 45.1778 39.5465 45.1778C39.5572 45.1778 39.7992 45.0219 40.0843 44.8337C42.0042 43.5699 44.6393 42.7632 47.5003 42.5642C47.9682 42.532 48.022 42.5212 48.0488 42.4136C48.0596 42.3545 48.4145 40.6766 48.8286 38.6976C49.2481 36.7131 49.6246 35.0191 49.673 34.9277C49.7751 34.7233 49.9634 34.6158 50.1946 34.6212C50.2914 34.6265 51.5175 34.8739 52.9212 35.1751L55.4756 35.7182L55.5563 35.5945C55.7983 35.2342 56.0564 34.9653 56.3361 34.804C56.7663 34.5405 57.0621 34.4706 57.6106 34.4975C57.9871 34.5136 58.1377 34.5459 58.4173 34.6749ZM63.7844 62.7365C63.5639 62.957 63.3703 63.1398 63.3595 63.1398C63.3434 63.1398 63.5101 62.957 63.7306 62.7365C63.9511 62.516 64.1447 62.3331 64.1555 62.3331C64.1716 62.3331 64.0049 62.516 63.7844 62.7365Z" fill="url(#paint1_linear_17_2512)"/>
<path d="M43.1443 47.5496C42.4828 47.6786 41.902 48.1304 41.5901 48.7703C41.3965 49.1629 41.3857 49.2006 41.3857 49.7168C41.3857 50.217 41.4019 50.2923 41.5578 50.6203C42.0472 51.6528 43.1497 52.1691 44.1876 51.8572C44.8329 51.6582 45.3062 51.2603 45.5805 50.6902C46.2043 49.3619 45.4137 47.8131 43.9725 47.5496C43.6122 47.485 43.4777 47.485 43.1443 47.5496Z" fill="url(#paint2_linear_17_2512)"/>
<path d="M52.9752 47.5657C51.8298 47.8131 51.0553 48.937 51.2543 50.0664C51.4103 50.9591 51.9696 51.5937 52.8354 51.8572C53.8733 52.1691 54.9758 51.6528 55.4652 50.6203C55.6211 50.2923 55.6373 50.217 55.6373 49.7168C55.6373 49.2006 55.6265 49.1629 55.4329 48.7703C55.1102 48.1142 54.5456 47.6786 53.8357 47.5442C53.4861 47.4796 53.3517 47.4796 52.9752 47.5657Z" fill="url(#paint3_linear_17_2512)"/>
<path d="M43.4238 54.6913C43.2248 54.7774 43.0796 55.014 43.0796 55.2506C43.0796 55.4496 43.1119 55.5034 43.37 55.7454C44.9833 57.2566 49.0651 57.7244 51.9799 56.7295C52.6414 56.5037 53.5018 55.9982 53.8299 55.6486C53.9751 55.4873 54.0396 55.0947 53.9482 54.9226C53.8568 54.7559 53.5825 54.6268 53.3943 54.6644C53.3082 54.6806 53.0985 54.8096 52.9318 54.9441C52.3348 55.4389 51.3453 55.8099 50.0977 56.0197C49.2856 56.1595 47.7099 56.1434 46.871 55.9928C45.6502 55.7723 44.822 55.455 44.2089 54.9549C43.8648 54.6806 43.6335 54.6053 43.4238 54.6913Z" fill="url(#paint4_linear_17_2512)"/>
<defs>
<linearGradient id="paint0_linear_17_2512" x1="-15.36" y1="18.24" x2="110.4" y2="83.52" gradientUnits="userSpaceOnUse">
<stop stop-color="#3F37C9"/>
<stop offset="1" stop-color="#4895EF"/>
<stop offset="1" stop-color="#4895EF"/>
</linearGradient>
<linearGradient id="paint1_linear_17_2512" x1="20.1202" y1="60.83" x2="76.4491" y2="31.5916" gradientUnits="userSpaceOnUse">
<stop stop-color="#3F37C9"/>
<stop offset="1" stop-color="#4895EF"/>
<stop offset="1" stop-color="#4895EF"/>
</linearGradient>
<linearGradient id="paint2_linear_17_2512" x1="40.6801" y1="51.1027" x2="46.4773" y2="48.118" gradientUnits="userSpaceOnUse">
<stop stop-color="#3F37C9"/>
<stop offset="1" stop-color="#4895EF"/>
<stop offset="1" stop-color="#4895EF"/>
</linearGradient>
<linearGradient id="paint3_linear_17_2512" x1="50.5169" y1="51.1021" x2="56.3188" y2="48.1143" gradientUnits="userSpaceOnUse">
<stop stop-color="#3F37C9"/>
<stop offset="1" stop-color="#4895EF"/>
<stop offset="1" stop-color="#4895EF"/>
</linearGradient>
<linearGradient id="paint4_linear_17_2512" x1="41.3338" y1="56.7614" x2="44.4866" y2="49.8864" gradientUnits="userSpaceOnUse">
<stop stop-color="#3F37C9"/>
<stop offset="1" stop-color="#4895EF"/>
<stop offset="1" stop-color="#4895EF"/>
</linearGradient>
</defs>
</svg>
