<svg width="240" height="242" viewBox="0 0 240 242" fill="none" xmlns="http://www.w3.org/2000/svg">
<path d="M238.989 135.546C242.776 106.556 235.85 77.1802 219.511 52.9356C203.171 28.691 178.543 11.2455 150.25 3.87539C121.958 -3.49472 91.9479 -0.282422 65.8564 12.909C39.765 26.1005 19.3869 48.3635 8.54918 75.5173C-2.28853 102.671 -2.84026 132.847 6.9976 160.379C16.8355 187.911 36.3861 210.904 61.9779 225.04C87.5698 239.177 117.442 243.484 145.985 237.153C174.528 230.822 199.778 214.288 216.993 190.657L120 120L238.989 135.546Z" fill="white"/>
<path d="M217.501 191.954C231.633 172.257 239.468 148.742 239.974 124.505L120 122L217.501 191.954Z" fill="url(#paint0_linear_12_7)"/>
<g filter="url(#filter0_d_12_7)">
<ellipse cx="119.5" cy="122" rx="62.5" ry="63" transform="rotate(-180 119.5 122)" fill="#161616"/>
</g>
<path d="M99.41 133V113.8L101.51 115.9H95.21V112H104.27V133H99.41ZM116.918 133.36C115.198 133.36 113.658 132.94 112.298 132.1C110.938 131.24 109.868 130 109.088 128.38C108.308 126.76 107.918 124.8 107.918 122.5C107.918 120.2 108.308 118.24 109.088 116.62C109.868 115 110.938 113.77 112.298 112.93C113.658 112.07 115.198 111.64 116.918 111.64C118.658 111.64 120.198 112.07 121.538 112.93C122.898 113.77 123.968 115 124.748 116.62C125.528 118.24 125.918 120.2 125.918 122.5C125.918 124.8 125.528 126.76 124.748 128.38C123.968 130 122.898 131.24 121.538 132.1C120.198 132.94 118.658 133.36 116.918 133.36ZM116.918 129.25C117.738 129.25 118.448 129.02 119.048 128.56C119.668 128.1 120.148 127.37 120.488 126.37C120.848 125.37 121.028 124.08 121.028 122.5C121.028 120.92 120.848 119.63 120.488 118.63C120.148 117.63 119.668 116.9 119.048 116.44C118.448 115.98 117.738 115.75 116.918 115.75C116.118 115.75 115.408 115.98 114.788 116.44C114.188 116.9 113.708 117.63 113.348 118.63C113.008 119.63 112.838 120.92 112.838 122.5C112.838 124.08 113.008 125.37 113.348 126.37C113.708 127.37 114.188 128.1 114.788 128.56C115.408 129.02 116.118 129.25 116.918 129.25ZM131.309 133L145.649 112H149.219L134.879 133H131.309ZM133.139 123.34C132.119 123.34 131.219 123.11 130.439 122.65C129.659 122.17 129.039 121.5 128.579 120.64C128.139 119.76 127.919 118.73 127.919 117.55C127.919 116.37 128.139 115.35 128.579 114.49C129.039 113.63 129.659 112.96 130.439 112.48C131.219 112 132.119 111.76 133.139 111.76C134.159 111.76 135.059 112 135.839 112.48C136.619 112.96 137.229 113.63 137.669 114.49C138.109 115.35 138.329 116.37 138.329 117.55C138.329 118.73 138.109 119.76 137.669 120.64C137.229 121.5 136.619 122.17 135.839 122.65C135.059 123.11 134.159 123.34 133.139 123.34ZM133.139 120.88C133.799 120.88 134.329 120.61 134.729 120.07C135.129 119.51 135.329 118.67 135.329 117.55C135.329 116.43 135.129 115.6 134.729 115.06C134.329 114.5 133.799 114.22 133.139 114.22C132.499 114.22 131.969 114.5 131.549 115.06C131.149 115.6 130.949 116.43 130.949 117.55C130.949 118.65 131.149 119.48 131.549 120.04C131.969 120.6 132.499 120.88 133.139 120.88ZM147.389 133.24C146.389 133.24 145.489 133.01 144.689 132.55C143.909 132.07 143.299 131.4 142.859 130.54C142.419 129.66 142.199 128.63 142.199 127.45C142.199 126.27 142.419 125.25 142.859 124.39C143.299 123.53 143.909 122.86 144.689 122.38C145.489 121.9 146.389 121.66 147.389 121.66C148.429 121.66 149.339 121.9 150.119 122.38C150.899 122.86 151.509 123.53 151.949 124.39C152.389 125.25 152.609 126.27 152.609 127.45C152.609 128.63 152.389 129.66 151.949 130.54C151.509 131.4 150.899 132.07 150.119 132.55C149.339 133.01 148.429 133.24 147.389 133.24ZM147.389 130.78C148.049 130.78 148.579 130.51 148.979 129.97C149.379 129.41 149.579 128.57 149.579 127.45C149.579 126.35 149.379 125.52 148.979 124.96C148.579 124.4 148.049 124.12 147.389 124.12C146.749 124.12 146.219 124.4 145.799 124.96C145.399 125.5 145.199 126.33 145.199 127.45C145.199 128.57 145.399 129.41 145.799 129.97C146.219 130.51 146.749 130.78 147.389 130.78Z" fill="white"/>
<defs>
<filter id="filter0_d_12_7" x="26" y="32" width="187" height="188" filterUnits="userSpaceOnUse" color-interpolation-filters="sRGB">
<feFlood flood-opacity="0" result="BackgroundImageFix"/>
<feColorMatrix in="SourceAlpha" type="matrix" values="0 0 0 0 0 0 0 0 0 0 0 0 0 0 0 0 0 0 127 0" result="hardAlpha"/>
<feMorphology radius="8" operator="dilate" in="SourceAlpha" result="effect1_dropShadow_12_7"/>
<feOffset dy="4"/>
<feGaussianBlur stdDeviation="11.5"/>
<feColorMatrix type="matrix" values="0 0 0 0 0 0 0 0 0 0 0 0 0 0 0 0 0 0 0.25 0"/>
<feBlend mode="normal" in2="BackgroundImageFix" result="effect1_dropShadow_12_7"/>
<feBlend mode="normal" in="SourceGraphic" in2="effect1_dropShadow_12_7" result="shape"/>
</filter>
<linearGradient id="paint0_linear_12_7" x1="-38.4" y1="47.6" x2="276" y2="210.8" gradientUnits="userSpaceOnUse">
<stop stop-color="#3F37C9"/>
<stop offset="1" stop-color="#4895EF"/>
<stop offset="1" stop-color="#4895EF"/>
</linearGradient>
</defs>
</svg>
