<svg width="96" height="96" viewBox="0 0 96 96" fill="none" xmlns="http://www.w3.org/2000/svg">
<g id="Icon">
<circle id="Circle" opacity="0.1" cx="48" cy="48" r="48" fill="url(#paint0_linear_17_2491)"/>
<g id="Black">
<path id="Vector" d="M54.5153 32.0266C51.9934 32.4214 49.4841 34.2556 48.376 36.5356C47.65 38.0258 47.3952 39.2868 47.4844 40.9299L47.5608 42.2163L46.1343 42.0635C41.0903 41.5158 36.2247 39.2486 32.5946 35.7586C32.1616 35.351 31.4992 34.6632 31.1044 34.2429L30.3911 33.4786L30.0727 34.1664C29.5504 35.2873 29.3339 36.37 29.3212 37.6819C29.3212 40.0128 30.0599 41.8215 31.7285 43.5028L32.7602 44.56H32.238C31.8049 44.56 30.3019 44.1142 29.4485 43.7448C29.2702 43.6556 29.232 43.7066 29.232 44.1269C29.232 45.044 29.6014 46.3941 30.1363 47.4895C31.0789 49.4001 33.0404 51.0687 35.0911 51.7056L35.7917 51.9221L35.2822 52.024C35.002 52.0877 34.1868 52.1386 33.4608 52.1386C31.9832 52.1259 32.0342 52.0622 32.6074 53.2213C33.3589 54.6988 34.7345 56.0999 36.2375 56.9023C37.0654 57.3481 38.6448 57.8067 39.3199 57.8067C39.5873 57.8067 39.8039 57.8449 39.8039 57.8958C39.8039 58.0614 38.148 59.1059 37.0017 59.679C34.6963 60.8254 32.2889 61.3731 29.4995 61.3731C27.4615 61.3858 27.4615 61.3476 29.7415 62.5067C31.9323 63.6276 33.9957 64.3026 36.5559 64.7612C38.3391 65.0796 42.657 65.0796 44.4529 64.7612C47.0768 64.2899 48.9237 63.704 51.2037 62.5704C56.566 59.921 60.7566 55.0172 62.8582 48.9543C63.6479 46.6489 64.0045 44.7383 64.0937 42.2928L64.1701 40.2166L65.1381 39.4142C66.2336 38.5098 68.2078 36.319 68.2078 36.0006C68.2078 35.9624 67.7365 36.1025 67.1634 36.3063C66.1699 36.6629 63.8772 37.2106 63.788 37.1215C63.7625 37.096 64.03 36.854 64.3867 36.5865C65.2783 35.9114 66.2208 34.7396 66.743 33.657C66.985 33.1602 67.1888 32.7144 67.1888 32.6635C67.1888 32.6252 66.6921 32.8418 66.0807 33.1475C64.9726 33.6952 63.9409 34.0773 62.6162 34.4212L61.9156 34.5995L61.2278 33.9881C59.8395 32.7526 58.1454 32.0903 56.1712 32.0139C55.4706 31.9884 54.7319 32.0011 54.5153 32.0266Z" fill="url(#paint1_linear_17_2491)"/>
</g>
</g>
<defs>
<linearGradient id="paint0_linear_17_2491" x1="-15.36" y1="18.24" x2="110.4" y2="83.52" gradientUnits="userSpaceOnUse">
<stop stop-color="#3F37C9"/>
<stop offset="1" stop-color="#4895EF"/>
<stop offset="1" stop-color="#4895EF"/>
</linearGradient>
<linearGradient id="paint1_linear_17_2491" x1="21.5667" y1="58.73" x2="69.327" y2="28.5235" gradientUnits="userSpaceOnUse">
<stop stop-color="#3F37C9"/>
<stop offset="1" stop-color="#4895EF"/>
<stop offset="1" stop-color="#4895EF"/>
</linearGradient>
</defs>
</svg>
